<?xml version="1.0" encoding="UTF-8"?>
<svg version="1.1" xmlns="http://www.w3.org/2000/svg" width="1200" height="1200">
<path d="M0 0 C396 0 792 0 1200 0 C1200 396 1200 792 1200 1200 C804 1200 408 1200 0 1200 C0 804 0 408 0 0 Z " fill="#1A1E2E" transform="translate(0,0)"/>
<path d="M0 0 C7.38685662 0.45296762 14.11026701 2.35109154 21.15893555 4.44799805 C29.15692019 6.81896932 37.2114772 8.91487177 45.296875 10.96484375 C56.79791842 13.88772669 68.21230629 17.04291546 79.60791016 20.35742188 C87.36209759 22.59824396 95.12569307 24.58398624 103.01171875 26.30078125 C106.234375 27.08984375 106.234375 27.08984375 108.890625 28.1796875 C111.37583333 29.14477674 113.14676893 29.32804143 115.796875 29.27734375 C116.91255859 29.26767578 116.91255859 29.26767578 118.05078125 29.2578125 C121.22186903 29.02451088 121.22186903 29.02451088 124.234375 28.08984375 C125.74259613 25.98629267 125.74259613 25.98629267 126.984375 23.40234375 C130.5032742 17.1909535 134.66569454 13.87418398 140.984375 10.71484375 C149.8091642 9.0177689 157.41817613 9.46696128 165.234375 14.08984375 C165.564375 14.41984375 165.894375 14.74984375 166.234375 15.08984375 C170.0242837 15.31723827 173.01357641 15.15407607 176.671875 14.08984375 C180.9175922 12.89806348 183.8435922 12.65076547 188.234375 13.08984375 C191.25962013 16.1279252 192.11969017 19.50323789 193.20703125 23.578125 C193.54927734 24.84205078 193.89152344 26.10597656 194.24414062 27.40820312 C194.59531149 28.73951493 194.94622091 30.07089573 195.296875 31.40234375 C195.65086379 32.7222278 196.00567391 34.04189186 196.36132812 35.36132812 C197.01859645 37.80527291 197.67209735 40.25023635 198.32055664 42.6965332 C198.6221167 43.81632568 198.92367676 44.93611816 199.234375 46.08984375 C199.47937744 47.34410156 199.72437988 48.59835937 199.97680664 49.890625 C200.90763487 53.28745453 200.90763487 53.28745453 203.87646484 54.46362305 C204.97168457 54.69476807 206.0669043 54.92591309 207.1953125 55.1640625 C208.38898438 55.43927734 209.58265625 55.71449219 210.8125 55.99804688 C212.06546875 56.25521484 213.3184375 56.51238281 214.609375 56.77734375 C217.07829296 57.31023132 219.54461462 57.85533065 222.0078125 58.4140625 C223.65402588 58.75570435 223.65402588 58.75570435 225.33349609 59.10424805 C228.7182151 60.25423211 230.25032963 61.10063633 232.234375 64.08984375 C232.03384611 68.76554884 230.78392386 73.12970851 229.52734375 77.625 C229.0178418 79.45901367 229.0178418 79.45901367 228.49804688 81.33007812 C228.14291016 82.59142578 227.78777344 83.85277344 227.421875 85.15234375 C227.07833984 86.38662109 226.73480469 87.62089844 226.38085938 88.89257812 C223.5293273 99.11636385 223.5293273 99.11636385 222.08056641 103.89794922 C221.71495605 105.11498535 221.3493457 106.33202148 220.97265625 107.5859375 C220.63919189 108.66931396 220.30572754 109.75269043 219.9621582 110.86889648 C218.7679904 116.15392024 218.95570865 120.92043879 220.34375 126.1328125 C220.59793701 127.10234863 220.85212402 128.07188477 221.11401367 129.07080078 C221.54484253 130.65803955 221.54484253 130.65803955 221.984375 132.27734375 C222.28512939 133.41284668 222.58588379 134.54834961 222.89575195 135.71826172 C224.96998974 143.50717417 227.1038704 151.27994017 229.23046875 159.0546875 C229.62321487 160.49146095 229.62321487 160.49146095 230.02389526 161.95726013 C231.3333864 166.74550425 232.64709335 171.53250723 233.96972656 176.31713867 C236.62859518 185.96723354 239.1440344 195.6264666 241.38305664 205.3828125 C242.48811836 210.19475891 243.66288894 214.98746369 244.859375 219.77734375 C245.16488281 221.01774414 245.16488281 221.01774414 245.4765625 222.28320312 C246.55913415 226.62389908 247.75282257 230.86398114 249.234375 235.08984375 C251.90104167 243.08984375 251.90104167 243.08984375 250.234375 247.08984375 C245.81541826 250.4659267 240.86246972 251.3061192 235.546875 252.46484375 C228.60367548 254.04547319 221.71127924 255.71200803 214.859375 257.65234375 C214.12759033 257.85956055 213.39580566 258.06677734 212.6418457 258.28027344 C211.20420085 258.6877644 209.76661798 259.09547412 208.32910156 259.50341797 C204.9735899 260.4428048 201.60420614 261.32847449 198.234375 262.21484375 C193.17698556 263.5497341 188.1696045 264.98130098 183.1875 266.57421875 C181.234375 267.08984375 181.234375 267.08984375 178.234375 267.08984375 C178.06421875 267.78207031 177.8940625 268.47429687 177.71875 269.1875 C176.90053216 272.49083691 176.06887364 275.79058121 175.234375 279.08984375 C175.06856934 279.75258301 174.90276367 280.41532227 174.73193359 281.09814453 C174.21918474 283.13897213 173.69657533 285.17705982 173.171875 287.21484375 C172.85089844 288.47554687 172.52992188 289.73625 172.19921875 291.03515625 C171.234375 294.08984375 171.234375 294.08984375 169.234375 296.08984375 C163.11531588 296.54709212 157.97166435 295.50557492 152.109375 293.83984375 C151.28477783 293.61385498 150.46018066 293.38786621 149.6105957 293.1550293 C147.14877424 292.47716408 144.69132999 291.78511296 142.234375 291.08984375 C140.85554488 290.70545596 139.47664421 290.32132113 138.09765625 289.9375 C129.12456228 287.41053942 129.12456228 287.41053942 125.1875 285.9921875 C122.22456482 285.0868462 119.88248158 284.82193021 116.796875 284.83984375 C115.91128906 284.8346875 115.02570313 284.82953125 114.11328125 284.82421875 C111.3710348 285.07723471 108.93696033 285.6569993 106.30883789 286.4609375 C103.85789822 287.20397864 101.39137966 287.87070276 98.91796875 288.53515625 C97.42281738 288.9377063 97.42281738 288.9377063 95.89746094 289.34838867 C94.83301758 289.63431885 93.76857422 289.92024902 92.671875 290.21484375 C91.54942383 290.51688721 90.42697266 290.81893066 89.27050781 291.13012695 C82.96530402 292.82505093 76.65778549 294.51102741 70.34765625 296.1875 C69.36212013 296.44953217 69.36212013 296.44953217 68.35667419 296.71685791 C65.17628779 297.5624138 61.99558022 298.40668757 58.81420898 299.24853516 C49.50487776 301.72141593 40.23945845 304.33240186 30.99511719 307.0378418 C21.20076883 309.88312252 21.20076883 309.88312252 17.234375 309.08984375 C13.84796215 304.68570576 12.68539792 299.42004499 11.234375 294.15234375 C10.97237305 293.220271 10.71037109 292.28819824 10.44042969 291.32788086 C8.66752511 284.9256641 7.13608379 278.52368344 5.875 272 C5.27954194 269.03259311 5.27954194 269.03259311 4.18359375 266.02734375 C3.234375 263.08984375 3.234375 263.08984375 3.05078125 260.4921875 C2.71945909 257.27581391 2.22993915 255.67412097 0.234375 253.08984375 C-4.89596143 250.53822522 -10.77351739 249.67333504 -16.35302734 248.578125 C-19.55282236 247.93052431 -22.68242981 247.08562443 -25.828125 246.21484375 C-30.64366982 244.91448807 -35.46655333 243.65511325 -40.30078125 242.42578125 C-42.66411446 241.81400278 -45.02739538 241.20202225 -47.390625 240.58984375 C-48.53023682 240.30512207 -49.66984863 240.02040039 -50.84399414 239.72705078 C-52.46422485 239.30335205 -52.46422485 239.30335205 -54.1171875 238.87109375 C-55.08479004 238.62423828 -56.05239258 238.37738281 -57.04931641 238.12304688 C-60.22358483 236.91564943 -62.31163626 235.42778775 -64.765625 233.08984375 C-65.86958849 226.5849512 -63.40017966 220.19661887 -61.640625 213.96484375 C-61.32585205 212.82281494 -61.0110791 211.68078613 -60.68676758 210.50415039 C-58.42439839 202.32927454 -56.10775325 194.16807176 -53.72021484 186.02880859 C-52.38500831 181.44168257 -51.24159466 176.85662465 -50.23706055 172.1862793 C-49.56058099 169.17802969 -48.70136632 166.23373906 -47.828125 163.27734375 C-46.50656169 158.73293458 -45.26561024 154.18686464 -44.140625 149.58984375 C-43.18310757 145.67740694 -42.03941366 141.91120972 -40.765625 138.08984375 C-39.9679839 134.96540504 -39.20190916 131.83477881 -38.44921875 128.69921875 C-37.765625 126.08984375 -37.765625 126.08984375 -36.765625 124.08984375 C-36.04539475 116.7919824 -37.44507439 110.5032752 -39.640625 103.58984375 C-45.81103246 83.60244734 -45.81103246 83.60244734 -44.765625 75.08984375 C-41.83330335 72.64624237 -39.24417671 71.91944401 -35.55078125 71.4765625 C-30.57268025 70.81295526 -25.89072578 70.12847288 -21.765625 67.08984375 C-18.19240013 61.32564467 -17.24000371 54.40428737 -16.19775391 47.79858398 C-15.34037731 42.42423748 -14.20122489 37.16228088 -12.390625 32.02734375 C-10.91516788 27.80116004 -9.86627418 23.50157873 -8.828125 19.15234375 C-4.26537544 0.21704344 -4.26537544 0.21704344 0 0 Z " fill="#1A1E2F" transform="translate(506.765625,223.91015625)"/>
<path d="M0 0 C7.38685662 0.45296762 14.11026701 2.35109154 21.15893555 4.44799805 C29.15692019 6.81896932 37.2114772 8.91487177 45.296875 10.96484375 C56.79791842 13.88772669 68.21230629 17.04291546 79.60791016 20.35742188 C87.36209759 22.59824396 95.12569307 24.58398624 103.01171875 26.30078125 C106.234375 27.08984375 106.234375 27.08984375 108.890625 28.1796875 C111.37583333 29.14477674 113.14676893 29.32804143 115.796875 29.27734375 C116.91255859 29.26767578 116.91255859 29.26767578 118.05078125 29.2578125 C121.22186903 29.02451088 121.22186903 29.02451088 124.234375 28.08984375 C125.74259613 25.98629267 125.74259613 25.98629267 126.984375 23.40234375 C130.5032742 17.1909535 134.66569454 13.87418398 140.984375 10.71484375 C149.8091642 9.0177689 157.41817613 9.46696128 165.234375 14.08984375 C165.564375 14.41984375 165.894375 14.74984375 166.234375 15.08984375 C170.0242837 15.31723827 173.01357641 15.15407607 176.671875 14.08984375 C180.9175922 12.89806348 183.8435922 12.65076547 188.234375 13.08984375 C191.25962013 16.1279252 192.11969017 19.50323789 193.20703125 23.578125 C193.54927734 24.84205078 193.89152344 26.10597656 194.24414062 27.40820312 C194.59531149 28.73951493 194.94622091 30.07089573 195.296875 31.40234375 C195.65086379 32.7222278 196.00567391 34.04189186 196.36132812 35.36132812 C197.01859645 37.80527291 197.67209735 40.25023635 198.32055664 42.6965332 C198.6221167 43.81632568 198.92367676 44.93611816 199.234375 46.08984375 C199.47937744 47.34410156 199.72437988 48.59835937 199.97680664 49.890625 C200.90763487 53.28745453 200.90763487 53.28745453 203.87646484 54.46362305 C204.97168457 54.69476807 206.0669043 54.92591309 207.1953125 55.1640625 C208.38898438 55.43927734 209.58265625 55.71449219 210.8125 55.99804688 C212.06546875 56.25521484 213.3184375 56.51238281 214.609375 56.77734375 C217.07829296 57.31023132 219.54461462 57.85533065 222.0078125 58.4140625 C223.65402588 58.75570435 223.65402588 58.75570435 225.33349609 59.10424805 C228.7182151 60.25423211 230.25032963 61.10063633 232.234375 64.08984375 C232.03384611 68.76554884 230.78392386 73.12970851 229.52734375 77.625 C229.0178418 79.45901367 229.0178418 79.45901367 228.49804688 81.33007812 C228.14291016 82.59142578 227.78777344 83.85277344 227.421875 85.15234375 C227.07833984 86.38662109 226.73480469 87.62089844 226.38085938 88.89257812 C223.5293273 99.11636385 223.5293273 99.11636385 222.08056641 103.89794922 C221.71495605 105.11498535 221.3493457 106.33202148 220.97265625 107.5859375 C220.63919189 108.66931396 220.30572754 109.75269043 219.9621582 110.86889648 C218.7679904 116.15392024 218.95570865 120.92043879 220.34375 126.1328125 C220.59793701 127.10234863 220.85212402 128.07188477 221.11401367 129.07080078 C221.54484253 130.65803955 221.54484253 130.65803955 221.984375 132.27734375 C222.28512939 133.41284668 222.58588379 134.54834961 222.89575195 135.71826172 C224.96998974 143.50717417 227.1038704 151.27994017 229.23046875 159.0546875 C229.62321487 160.49146095 229.62321487 160.49146095 230.02389526 161.95726013 C231.3333864 166.74550425 232.64709335 171.53250723 233.96972656 176.31713867 C236.62859518 185.96723354 239.1440344 195.6264666 241.38305664 205.3828125 C242.48811836 210.19475891 243.66288894 214.98746369 244.859375 219.77734375 C245.16488281 221.01774414 245.16488281 221.01774414 245.4765625 222.28320312 C246.55913415 226.62389908 247.75282257 230.86398114 249.234375 235.08984375 C251.90104167 243.08984375 251.90104167 243.08984375 250.234375 247.08984375 C245.81541826 250.4659267 240.86246972 251.3061192 235.546875 252.46484375 C228.60367548 254.04547319 221.71127924 255.71200803 214.859375 257.65234375 C214.12759033 257.85956055 213.39580566 258.06677734 212.6418457 258.28027344 C211.20420085 258.6877644 209.76661798 259.09547412 208.32910156 259.50341797 C204.9735899 260.4428048 201.60420614 261.32847449 198.234375 262.21484375 C193.17698556 263.5497341 188.1696045 264.98130098 183.1875 266.57421875 C181.234375 267.08984375 181.234375 267.08984375 178.234375 267.08984375 C178.06421875 267.78207031 177.8940625 268.47429687 177.71875 269.1875 C176.90053216 272.49083691 176.06887364 275.79058121 175.234375 279.08984375 C175.06856934 279.75258301 174.90276367 280.41532227 174.73193359 281.09814453 C174.21918474 283.13897213 173.69657533 285.17705982 173.171875 287.21484375 C172.85089844 288.47554687 172.52992188 289.73625 172.19921875 291.03515625 C171.234375 294.08984375 171.234375 294.08984375 169.234375 296.08984375 C163.11531588 296.54709212 157.97166435 295.50557492 152.109375 293.83984375 C151.28477783 293.61385498 150.46018066 293.38786621 149.6105957 293.1550293 C147.14877424 292.47716408 144.69132999 291.78511296 142.234375 291.08984375 C140.85554488 290.70545596 139.47664421 290.32132113 138.09765625 289.9375 C129.12456228 287.41053942 129.12456228 287.41053942 125.1875 285.9921875 C122.22456482 285.0868462 119.88248158 284.82193021 116.796875 284.83984375 C115.91128906 284.8346875 115.02570313 284.82953125 114.11328125 284.82421875 C111.3710348 285.07723471 108.93696033 285.6569993 106.30883789 286.4609375 C103.85789822 287.20397864 101.39137966 287.87070276 98.91796875 288.53515625 C97.42281738 288.9377063 97.42281738 288.9377063 95.89746094 289.34838867 C94.83301758 289.63431885 93.76857422 289.92024902 92.671875 290.21484375 C91.54942383 290.51688721 90.42697266 290.81893066 89.27050781 291.13012695 C82.96530402 292.82505093 76.65778549 294.51102741 70.34765625 296.1875 C69.36212013 296.44953217 69.36212013 296.44953217 68.35667419 296.71685791 C65.17628779 297.5624138 61.99558022 298.40668757 58.81420898 299.24853516 C49.50487776 301.72141593 40.23945845 304.33240186 30.99511719 307.0378418 C21.20076883 309.88312252 21.20076883 309.88312252 17.234375 309.08984375 C13.84796215 304.68570576 12.68539792 299.42004499 11.234375 294.15234375 C10.97237305 293.220271 10.71037109 292.28819824 10.44042969 291.32788086 C8.66752511 284.9256641 7.13608379 278.52368344 5.875 272 C5.27954194 269.03259311 5.27954194 269.03259311 4.18359375 266.02734375 C3.234375 263.08984375 3.234375 263.08984375 3.05078125 260.4921875 C2.71945909 257.27581391 2.22993915 255.67412097 0.234375 253.08984375 C-4.89596143 250.53822522 -10.77351739 249.67333504 -16.35302734 248.578125 C-19.55282236 247.93052431 -22.68242981 247.08562443 -25.828125 246.21484375 C-30.64366982 244.91448807 -35.46655333 243.65511325 -40.30078125 242.42578125 C-42.66411446 241.81400278 -45.02739538 241.20202225 -47.390625 240.58984375 C-48.53023682 240.30512207 -49.66984863 240.02040039 -50.84399414 239.72705078 C-52.46422485 239.30335205 -52.46422485 239.30335205 -54.1171875 238.87109375 C-55.08479004 238.62423828 -56.05239258 238.37738281 -57.04931641 238.12304688 C-60.22358483 236.91564943 -62.31163626 235.42778775 -64.765625 233.08984375 C-65.86958849 226.5849512 -63.40017966 220.19661887 -61.640625 213.96484375 C-61.32585205 212.82281494 -61.0110791 211.68078613 -60.68676758 210.50415039 C-58.42439839 202.32927454 -56.10775325 194.16807176 -53.72021484 186.02880859 C-52.38500831 181.44168257 -51.24159466 176.85662465 -50.23706055 172.1862793 C-49.56058099 169.17802969 -48.70136632 166.23373906 -47.828125 163.27734375 C-46.50656169 158.73293458 -45.26561024 154.18686464 -44.140625 149.58984375 C-43.18310757 145.67740694 -42.03941366 141.91120972 -40.765625 138.08984375 C-39.9679839 134.96540504 -39.20190916 131.83477881 -38.44921875 128.69921875 C-37.765625 126.08984375 -37.765625 126.08984375 -36.765625 124.08984375 C-36.04539475 116.7919824 -37.44507439 110.5032752 -39.640625 103.58984375 C-45.81103246 83.60244734 -45.81103246 83.60244734 -44.765625 75.08984375 C-41.83330335 72.64624237 -39.24417671 71.91944401 -35.55078125 71.4765625 C-30.57268025 70.81295526 -25.89072578 70.12847288 -21.765625 67.08984375 C-18.19240013 61.32564467 -17.24000371 54.40428737 -16.19775391 47.79858398 C-15.34037731 42.42423748 -14.20122489 37.16228088 -12.390625 32.02734375 C-10.91516788 27.80116004 -9.86627418 23.50157873 -8.828125 19.15234375 C-4.26537544 0.21704344 -4.26537544 0.21704344 0 0 Z M176.234375 25.08984375 C175.29262735 28.98723016 175.21692795 32.46682976 175.359375 36.46484375 C175.38761879 44.83441886 172.95448182 50.19339719 167.30859375 56.2890625 C161.44631624 61.37853506 154.45516368 62.77490216 146.84765625 62.484375 C141.81127733 61.72402482 137.92723759 59.49250132 134.046875 56.27734375 C132.27971193 54.84728774 132.27971193 54.84728774 129.99438477 55.31982422 C126.76110048 56.22188337 124.18812874 57.5764217 121.26171875 59.22265625 C120.11380859 59.86460937 118.96589844 60.5065625 117.78320312 61.16796875 C116.5793829 61.85018246 115.37560701 62.53247441 114.171875 63.21484375 C112.99578004 63.87429989 111.81935016 64.53315909 110.64257812 65.19140625 C103.69514474 69.08556248 103.69514474 69.08556248 96.86376953 73.17871094 C95.28571533 74.15179199 95.28571533 74.15179199 93.67578125 75.14453125 C92.74580322 75.73476074 91.8158252 76.32499023 90.85766602 76.93310547 C87.79787049 78.2823201 86.37291599 78.08387471 83.234375 77.08984375 C82.739375 74.11984375 82.739375 74.11984375 82.234375 71.08984375 C86.87220183 67.58570792 91.59896086 64.70567515 96.72265625 61.96875 C101.37098639 59.48171241 105.98978434 56.94226475 110.609375 54.40234375 C111.47780029 53.92651855 112.34622559 53.45069336 113.2409668 52.96044922 C117.2839647 50.73991821 121.3045232 48.50759208 125.234375 46.08984375 C124.904375 44.10984375 124.574375 42.12984375 124.234375 40.08984375 C118.78331977 40.72351992 113.79160215 42.00427748 108.546875 43.58984375 C98.44882957 46.56412304 88.26420846 49.12840862 78.046875 51.65234375 C63.23181048 55.31400924 63.23181048 55.31400924 48.51342773 59.34350586 C41.2450807 61.41516901 33.90051078 63.18591683 26.55175781 64.94799805 C22.18953135 66.01228498 17.94753782 67.11913956 13.75390625 68.734375 C10.18913235 70.10726794 7.00477611 70.59186624 3.234375 71.08984375 C2.49098877 71.38874512 1.74760254 71.68764648 0.98168945 71.99560547 C-2.30640518 73.30523314 -5.60559319 74.1601237 -9.03515625 75.03515625 C-9.71615891 75.20989471 -10.39716156 75.38463318 -11.09880066 75.56466675 C-13.25778436 76.11787562 -15.41791974 76.66642654 -17.578125 77.21484375 C-19.04890686 77.59083797 -20.51961087 77.96713688 -21.99023438 78.34375 C-25.5811371 79.26264203 -29.17308717 80.1773626 -32.765625 81.08984375 C-32.48858088 91.07707942 -29.72547368 100.20201834 -26.953125 109.71484375 C-26.06618718 112.78882699 -25.18536848 115.86450952 -24.30859375 118.94140625 C-24.09238373 119.69770325 -23.87617371 120.45400024 -23.65341187 121.23321533 C-21.96589028 127.20741318 -20.49307707 133.21780959 -19.14360046 139.27700806 C-18.08423555 143.98027318 -16.74807292 148.50705546 -15.265625 153.08984375 C-13.31349341 159.13434984 -11.74668314 165.1793446 -10.35766602 171.3762207 C-9.01996725 177.24305189 -7.39401018 183.00338751 -5.703125 188.77734375 C-3.62639896 195.87437962 -1.81046614 202.91556938 -0.40625 210.1796875 C0.18372189 213.1048148 0.18372189 213.1048148 1.18188477 215.92089844 C2.14922154 218.833455 2.96161427 221.72918039 3.71484375 224.703125 C3.988125 225.77312744 4.26140625 226.84312988 4.54296875 227.94555664 C4.83300781 229.08629639 5.12304688 230.22703613 5.421875 231.40234375 C8.021926 241.53421265 10.74532105 251.62163768 13.59277344 261.68652344 C16.91782056 273.45756596 20.07817974 285.27259635 23.234375 297.08984375 C29.38610231 295.75302961 35.50425279 294.3124785 41.609375 292.77734375 C42.91237549 292.45032471 42.91237549 292.45032471 44.24169922 292.11669922 C58.74356098 288.46299704 73.18145826 284.57268051 87.61962891 280.67626953 C93.98577231 278.95954623 100.35580525 277.25977571 106.734375 275.58984375 C128.45725692 269.89866131 150.12605442 263.9934328 171.76953125 258.0078125 C172.41874039 257.82835587 173.06794952 257.64889923 173.73683167 257.46400452 C176.93798199 256.57904233 180.13880383 255.69293999 183.33911133 254.80493164 C188.57928704 253.35472249 193.81612144 251.91176252 199.09716797 250.61767578 C204.27846854 249.33803541 209.44195737 247.98669337 214.609375 246.65234375 C215.77726563 246.35263672 216.94515625 246.05292969 218.1484375 245.74414062 C224.89115664 244.00176757 231.58367755 242.15690105 238.234375 240.08984375 C238.54461025 235.12607976 237.8692637 231.99659236 236.03442383 227.30761719 C234.6707646 223.5274889 233.85940188 219.63146861 232.984375 215.71484375 C229.6246737 201.16396048 225.63266394 186.78499961 221.6640625 172.390625 C221.16631819 170.58212712 220.66891616 168.773535 220.171875 166.96484375 C219.93122314 166.08965088 219.69057129 165.21445801 219.44262695 164.31274414 C217.24376153 156.25122109 215.21854813 148.14845984 213.23803711 140.03076172 C212.07725811 135.30344413 210.81951921 130.69585705 209.234375 126.08984375 C207.1958427 118.85146148 205.23132222 111.58509546 203.7265625 104.21484375 C203.3113008 102.42196783 202.82198616 100.6464828 202.31640625 98.87695312 C201.31822977 95.38333544 200.3638275 91.8822931 199.4296875 88.37109375 C199.09324219 87.1078125 198.75679687 85.84453125 198.41015625 84.54296875 C198.05987659 83.22526553 197.70961621 81.90755719 197.359375 80.58984375 C196.85083984 78.67945313 196.85083984 78.67945313 196.33203125 76.73046875 C195.82349609 74.82007813 195.82349609 74.82007813 195.3046875 72.87109375 C195.1336853 72.22874283 194.96268311 71.58639191 194.78649902 70.92457581 C193.9282919 67.70006594 193.07150092 64.47519728 192.21679688 61.24975586 C190.03525892 53.03245305 187.78866393 44.83603085 185.484375 36.65234375 C185.01064453 34.9652832 185.01064453 34.9652832 184.52734375 33.24414062 C183.7638935 30.52579505 182.99956822 27.80769909 182.234375 25.08984375 C180.254375 25.08984375 178.274375 25.08984375 176.234375 25.08984375 Z " fill="#6368F8" transform="translate(506.765625,223.91015625)"/>
<path d="M0 0 C0.00238835 0.93060493 0.00477671 1.86120987 0.00723743 2.82001495 C0.06605219 25.47177189 0.1419473 48.12342262 0.23571491 70.77506256 C0.28066564 81.72926369 0.32008203 92.68343236 0.34643555 103.63769531 C0.36942142 113.18628971 0.40282614 122.73478133 0.44870156 132.2832942 C0.47262572 137.33837881 0.49135983 142.39336167 0.49761391 147.44850159 C0.50366835 152.20914524 0.52368139 156.9695286 0.55427551 161.73007584 C0.56304993 163.47470923 0.56677955 165.21937666 0.56500816 166.96403122 C0.56334917 169.35249951 0.58010708 171.74018012 0.60127258 174.12854004 C0.59642501 174.8133899 0.59157743 175.49823976 0.58658296 176.20384264 C0.68172466 182.74251225 2.21978009 188.05023534 6.625 192.875 C10.68068492 195.42857939 14.30823627 196.30144851 19 197 C19 198.65 19 200.3 19 202 C5.14 202.33 -8.72 202.66 -23 203 C-23.33 196.73 -23.66 190.46 -24 184 C-24.78375 185.340625 -25.5675 186.68125 -26.375 188.0625 C-31.75324399 196.04190405 -39.07331065 200.62360284 -48.46484375 202.5625 C-63.91435106 204.47448323 -77.8727971 203.67855284 -90.6875 193.96484375 C-98.73624618 187.12612867 -103.19943452 179.81723535 -107 170 C-107.48855469 168.84886719 -107.97710938 167.69773437 -108.48046875 166.51171875 C-116.36164524 145.973793 -114.124103 118.57553652 -105.41748047 98.83007812 C-98.74943032 84.67666823 -89.06008546 75.60774334 -75 69 C-74.20464844 68.61972656 -73.40929687 68.23945312 -72.58984375 67.84765625 C-63.05276736 64.19766405 -48.64244258 64.09055779 -39.125 67.75 C-36.90625 68.859375 -36.90625 68.859375 -35 70 C-33.329375 70.99 -33.329375 70.99 -31.625 72 C-29.17796675 73.86440628 -27.0149859 75.67501627 -25 78 C-25 78.66 -25 79.32 -25 80 C-24.34 80 -23.68 80 -23 80 C-23.01494945 72.61011095 -23.05687328 65.22087515 -23.13209057 57.83133888 C-23.16620457 54.39902851 -23.19144588 50.96715581 -23.19555664 47.53466797 C-23.20070198 43.57740334 -23.2459738 39.62105945 -23.29296875 35.6640625 C-23.2890361 34.44699615 -23.28510345 33.22992981 -23.28105164 31.97598267 C-23.40892478 24.42166586 -24.43379512 18.21166481 -29 12 C-32.28386894 9.85436683 -32.28386894 9.85436683 -36 9 C-36.66128906 8.80019531 -37.32257813 8.60039063 -38.00390625 8.39453125 C-39.65954848 7.89616621 -41.32879329 7.44338137 -43 7 C-43 5.35 -43 3.7 -43 2 C-41.66207397 1.970271 -41.66207397 1.970271 -40.29711914 1.93994141 C-36.94774968 1.86125546 -33.5987782 1.7745467 -30.24975586 1.68261719 C-28.8077782 1.64463229 -27.36571558 1.60972976 -25.92358398 1.578125 C-18.26310248 1.40818711 -6.69191354 -2.23063785 0 0 Z " fill="#C75A28" transform="translate(640,605)"/>
<path d="M0 0 C12.13819045 10.20482216 18.30420359 24.33613139 20.9453125 39.80859375 C22.30872248 63.75283428 22.61303861 88.63834824 6.91796875 108.35546875 C-3.52123339 119.60639909 -17.26794422 125.33809992 -32.4453125 126.1875 C-50.19169072 126.75775637 -64.75366338 123.134834 -78.17578125 110.8515625 C-93.0186701 94.71262099 -95.98602433 72.34528846 -95.375 51.30859375 C-94.43069316 31.7430996 -88.78879437 14.62253189 -74.40234375 0.8125 C-53.86829486 -16.71489947 -21.09305135 -15.13197162 0 0 Z " fill="#1B1E2D" transform="translate(772.0546875,682.19140625)"/>
<path d="M0 0 C0.73734375 0.55558594 1.4746875 1.11117187 2.234375 1.68359375 C3.40226562 2.56337891 3.40226562 2.56337891 4.59375 3.4609375 C16.65074612 13.35333868 22.69197475 27.61427122 25.234375 42.68359375 C25.66434068 48.27452348 25.72074824 53.82881722 25.671875 59.43359375 C25.66850128 60.18305267 25.66512756 60.9325116 25.66165161 61.7046814 C25.52994193 81.88319678 22.17478609 99.26490293 7.6953125 114.4609375 C-6.84279563 127.59138754 -23.40486203 129.66500095 -42.19580078 128.87890625 C-54.90339171 127.91310036 -67.19880707 120.99844983 -75.765625 111.68359375 C-90.78125022 91.44781252 -93.43391015 66.08677986 -89.93847656 41.63745117 C-87.24173474 25.6123004 -80.16029941 12.26340735 -67.765625 1.68359375 C-48.89098829 -11.53874533 -19.40716009 -13.05750201 0 0 Z " fill="#1B1E2D" transform="translate(477.765625,679.31640625)"/>
<path d="M0 0 C4.73134809 3.83105108 7.77149225 8.56447675 9.6875 14.3125 C9.79857218 16.76883625 9.85510249 19.19758456 9.86450195 21.65454102 C9.87107315 22.39969467 9.87764435 23.14484833 9.88441467 23.9125824 C9.90413412 26.38052476 9.91581061 28.84840614 9.92578125 31.31640625 C9.92985678 32.16171339 9.9339323 33.00702053 9.93813133 33.87794304 C9.95899177 38.35685862 9.97329051 42.83574362 9.98266602 47.31469727 C9.99369743 51.92228823 10.02805924 56.52939185 10.06783772 61.13681126 C10.09409943 64.69466494 10.10236655 68.25240454 10.10594749 71.8103466 C10.11079312 73.50746875 10.12234883 75.2045865 10.14098549 76.90161324 C10.23472506 86.00741342 10.21069874 94.11533622 5.6875 102.3125 C5.11 103.364375 4.5325 104.41625 3.9375 105.5 C-0.54127048 111.0984631 -5.64188987 115.55902948 -12.3125 118.3125 C-15.75 118.67578125 -15.75 118.67578125 -19.3125 118.625 C-20.488125 118.62113281 -21.66375 118.61726562 -22.875 118.61328125 C-30.88979232 117.91198692 -36.56252329 114.4073574 -41.9375 108.5625 C-51.66866679 96.84232549 -53.99976337 81.1609744 -54.3125 66.3125 C-54.33828125 65.39758789 -54.3640625 64.48267578 -54.390625 63.54003906 C-54.92560536 42.56212162 -54.67735705 20.23903585 -40.3125 3.3125 C-28.90164854 -7.57683175 -13.19375124 -9.08462797 0 0 Z " fill="#1B1E2D" transform="translate(607.3125,681.6875)"/>
<path d="M0 0 C47.19 0 94.38 0 143 0 C142.67 17.49 142.34 34.98 142 53 C140.02 53 138.04 53 136 53 C135.90501221 52.30551758 135.81002441 51.61103516 135.7121582 50.89550781 C133.81580044 29.97648849 133.81580044 29.97648849 123.625 12.4375 C116.74766406 7.36527827 109.52995844 5.9984393 101.1640625 5.68359375 C100.10058594 5.64169922 99.03710938 5.59980469 97.94140625 5.55664062 C96.84699219 5.51732422 95.75257813 5.47800781 94.625 5.4375 C93.50738281 5.39431641 92.38976562 5.35113281 91.23828125 5.30664062 C88.49229801 5.20102589 85.74623119 5.0989203 83 5 C83.06056625 25.46256722 83.13808867 45.9250035 83.23571491 66.38742828 C83.28065205 75.88880808 83.32007154 85.39015058 83.34643555 94.89160156 C83.36943247 103.17450012 83.40284946 111.4572804 83.44870156 119.74008512 C83.47261092 124.12447576 83.49135468 128.50874943 83.49761391 132.89320374 C83.50367512 137.02350935 83.52371226 141.15351577 83.55427551 145.28371048 C83.56303916 146.79613286 83.56678179 148.30859437 83.56500816 149.82104111 C83.51244288 160.7629864 83.51244288 160.7629864 87 171 C93.04201836 176.23641591 100.28960255 175.78611935 108 176 C108.38218767 177.65614657 108.71395102 179.32457024 109 181 C108 182 108 182 105.07041931 182.12025452 C103.75803787 182.11803391 102.44565643 182.11581329 101.09350586 182.11352539 C100.37159561 182.11367142 99.64968536 182.11381744 98.90589905 182.1139679 C96.50885053 182.11326869 94.11187877 182.10547595 91.71484375 182.09765625 C90.05717511 182.0957921 88.39950593 182.09436818 86.74183655 182.09336853 C82.37045786 182.08954312 77.99911219 182.07971265 73.62774658 182.06866455 C69.17045539 182.05845092 64.71315889 182.05387101 60.25585938 182.04882812 C51.50389107 182.0380904 42.75194964 182.02101371 34 182 C33.505 179.525 33.505 179.525 33 177 C34.00160156 176.90203125 35.00320313 176.8040625 36.03515625 176.703125 C46.25396604 175.82735897 46.25396604 175.82735897 55 171 C58.85932069 163.52660057 58.44199665 155.79433168 58.43237305 147.58789062 C58.44139974 146.0300723 58.45172918 144.47226106 58.46325684 142.91445923 C58.49074659 138.70430446 58.5001004 134.49428476 58.50611091 130.2840519 C58.51551554 125.87709871 58.54172059 121.47024559 58.56611633 117.06335449 C58.60972765 108.72672213 58.63830755 100.39010925 58.66143972 92.05339766 C58.6885202 82.55877638 58.73242994 73.06425603 58.77772844 63.56970692 C58.87049781 44.04652462 58.9422138 24.52331562 59 5 C55.04088406 5.08189714 51.08319579 5.19464361 47.125 5.3125 C46.01640625 5.33505859 44.9078125 5.35761719 43.765625 5.38085938 C33.40134055 5.71617446 23.44624811 7.15484575 16 15 C8.42084306 25.8950381 7.50805879 40.17262931 6 53 C4.35 53 2.7 53 1 53 C0.67 35.51 0.34 18.02 0 0 Z " fill="#C85A28" transform="translate(235,625)"/>
<path d="M0 0 C0.73734375 0.55558594 1.4746875 1.11117187 2.234375 1.68359375 C3.40226562 2.56337891 3.40226562 2.56337891 4.59375 3.4609375 C16.65074612 13.35333868 22.69197475 27.61427122 25.234375 42.68359375 C25.66434068 48.27452348 25.72074824 53.82881722 25.671875 59.43359375 C25.66850128 60.18305267 25.66512756 60.9325116 25.66165161 61.7046814 C25.52994193 81.88319678 22.17478609 99.26490293 7.6953125 114.4609375 C-6.84279563 127.59138754 -23.40486203 129.66500095 -42.19580078 128.87890625 C-54.90339171 127.91310036 -67.19880707 120.99844983 -75.765625 111.68359375 C-90.78125022 91.44781252 -93.43391015 66.08677986 -89.93847656 41.63745117 C-87.24173474 25.6123004 -80.16029941 12.26340735 -67.765625 1.68359375 C-48.89098829 -11.53874533 -19.40716009 -13.05750201 0 0 Z M-55.015625 8.1875 C-66.99123086 25.26877711 -66.121066 48.68690134 -65.765625 68.68359375 C-65.75837402 69.43866211 -65.75112305 70.19373047 -65.74365234 70.97167969 C-65.54523323 86.5828921 -63.17009208 104.13609295 -51.7109375 115.76953125 C-44.7846971 121.98538802 -39.61839424 124.02259586 -30.3203125 123.8984375 C-23.71930133 123.34330659 -17.48849464 120.31029636 -12.765625 115.68359375 C-2.95046331 103.23863136 0.51216591 87.88373592 0.60546875 72.3125 C0.61449722 71.35069321 0.6235257 70.38888641 0.63282776 69.39793396 C0.64724513 67.37184718 0.65619562 65.34571474 0.65991211 63.31958008 C0.6717256 60.28447731 0.72092709 57.25146729 0.77148438 54.21679688 C0.9201679 36.27857763 -1.20742595 19.00251368 -13.140625 4.87109375 C-20.40754639 -1.18467408 -26.3232514 -3.78759947 -35.82421875 -3.6484375 C-44.03187029 -2.72194297 -49.92194968 1.93337042 -55.015625 8.1875 Z " fill="#C85A28" transform="translate(477.765625,679.31640625)"/>
<path d="M0 0 C12.13819045 10.20482216 18.30420359 24.33613139 20.9453125 39.80859375 C22.30872248 63.75283428 22.61303861 88.63834824 6.91796875 108.35546875 C-3.52123339 119.60639909 -17.26794422 125.33809992 -32.4453125 126.1875 C-50.19169072 126.75775637 -64.75366338 123.134834 -78.17578125 110.8515625 C-93.0186701 94.71262099 -95.98602433 72.34528846 -95.375 51.30859375 C-94.43069316 31.7430996 -88.78879437 14.62253189 -74.40234375 0.8125 C-53.86829486 -16.71489947 -21.09305135 -15.13197162 0 0 Z M-56.8046875 2.37109375 C-69.0728344 17.85094892 -70.24229709 37.00049538 -70.23999023 55.98364258 C-70.24216498 57.97546508 -70.26064582 59.96724801 -70.27929688 61.95898438 C-70.29693554 73.86508538 -69.84280807 86.08344575 -65.3046875 97.24609375 C-65.04300781 97.91294189 -64.78132812 98.57979004 -64.51171875 99.2668457 C-60.77754338 108.39123175 -55.43962879 114.74656831 -46.8671875 119.62109375 C-38.85245052 122.11748724 -30.5948454 121.57151885 -23.0546875 117.80859375 C-11.84008211 110.8311288 -8.2185946 97.85917217 -5.0546875 85.80859375 C-3.34229951 77.59696734 -3.75307957 69.09639987 -3.70458984 60.74633789 C-3.68817281 58.68600049 -3.66107637 56.62571657 -3.62255859 54.56567383 C-3.26982205 35.54090516 -4.68736506 17.08568612 -17.4296875 1.99609375 C-24.69829624 -4.0610802 -30.60877597 -6.6540184 -40.109375 -6.52734375 C-46.8391638 -5.75975511 -52.18255592 -2.48417166 -56.8046875 2.37109375 Z " fill="#C85A28" transform="translate(772.0546875,682.19140625)"/>
<path d="M0 0 C21.45 0 42.9 0 65 0 C65 1.65 65 3.3 65 5 C64.11957031 5.09796875 63.23914063 5.1959375 62.33203125 5.296875 C61.17058594 5.44640625 60.00914062 5.5959375 58.8125 5.75 C57.08966797 5.95882812 57.08966797 5.95882812 55.33203125 6.171875 C51.59365197 7.10099154 49.72488221 8.30998832 47 11 C45.90830662 14.27508015 45.86873482 16.68074971 45.85955811 20.12886047 C45.85384796 21.41167908 45.84813782 22.69449768 45.84225464 24.01618958 C45.84100929 25.44088735 45.83988419 26.86558524 45.83886719 28.2902832 C45.83423865 29.78836184 45.82921394 31.2864393 45.82382202 32.78451538 C45.81069932 36.85692432 45.8042533 40.92931677 45.79981136 45.00174356 C45.79688038 47.54611384 45.79277551 50.09047962 45.78830719 52.63484764 C45.77463248 60.59583494 45.76496575 68.55681194 45.7611053 76.51781017 C45.75662472 85.70713722 45.73907677 94.89631552 45.7101047 104.08559734 C45.68848692 111.18888062 45.67840096 118.29212206 45.67706418 125.3954379 C45.6760162 129.63779651 45.67011001 133.88001528 45.65224457 138.12233925 C45.63576222 142.11390491 45.6336091 146.10522563 45.64238358 150.0968132 C45.64315387 151.56011677 45.63881217 153.02343351 45.62892532 154.48670387 C45.61619962 156.48782534 45.62387659 158.48904528 45.63250732 160.4901886 C45.63104076 161.609036 45.6295742 162.7278834 45.6280632 163.88063526 C46.06123971 167.51360604 47.0819656 169.89597221 49 173 C54.15255882 175.98848412 59.11346744 176.61290375 65 177 C65 178.65 65 180.3 65 182 C43.55 182 22.1 182 0 182 C0 180.35 0 178.7 0 177 C0.72445312 176.89042969 1.44890625 176.78085937 2.1953125 176.66796875 C10.05545166 175.53627114 10.05545166 175.53627114 17 172 C20.68206711 164.73904243 20.42601646 157.60993445 20.38818359 149.61694336 C20.39225427 148.16900742 20.39759892 146.72107459 20.40411377 145.27314758 C20.41773311 141.35997476 20.41251146 137.44704052 20.40297651 133.53386378 C20.39535335 129.42919087 20.40243275 125.32453766 20.40713501 121.21986389 C20.41258423 114.32940014 20.40542224 107.43903304 20.39111328 100.54858398 C20.37478186 92.59254815 20.38008215 84.63674291 20.3965925 76.68071264 C20.41022343 69.83716645 20.41211938 62.99368953 20.40427649 56.15013415 C20.39960963 52.06824596 20.39894801 47.98646604 20.40888596 43.90458488 C20.41757704 40.06722065 20.41149493 36.23015272 20.39420319 32.39282036 C20.39025001 30.98799633 20.39135231 29.58314719 20.39799118 28.17833328 C20.53806579 18.15444449 20.53806579 18.15444449 17 9 C15.08496253 7.58519739 15.08496253 7.58519739 12.8125 7.125 C12.02617188 6.91488281 11.23984375 6.70476563 10.4296875 6.48828125 C6.95219741 5.78942874 3.53347602 5.32122509 0 5 C0 3.35 0 1.7 0 0 Z " fill="#C85A28" transform="translate(812,625)"/>
<path d="M0 0 C0 13.86 0 27.72 0 42 C12.21 42 24.42 42 37 42 C37 43.65 37 45.3 37 47 C24.79 47 12.58 47 0 47 C0.06292988 61.09107799 0.13835041 75.18193751 0.23571491 89.27282047 C0.28042757 95.81590097 0.31968201 102.35891907 0.34643555 108.90209961 C0.37245916 115.21753612 0.4128556 121.53273262 0.46318626 127.84802055 C0.47986122 130.25649466 0.49137156 132.66501028 0.49761391 135.07353401 C0.5072478 138.44909912 0.53530006 141.82404932 0.56762695 145.19946289 C0.56619186 146.19352646 0.56475677 147.18759003 0.5632782 148.21177673 C0.64970408 154.6000029 1.3441771 159.65135373 5.4375 164.8125 C9.59950744 167.97562565 13.2599878 168.56591209 18.40625 168.4296875 C23.99943167 167.5031062 27.39065364 164.12389928 30.72265625 159.7265625 C34.3140655 154.13208225 36.43798235 148.43989735 38 142 C39.98 142 41.96 142 44 142 C43.1382905 154.3511695 37.37778682 165.23847987 28.29296875 173.38671875 C22.10270863 177.74204657 16.88815541 178.48004486 9.5 178.375 C8.27603516 178.39240234 8.27603516 178.39240234 7.02734375 178.41015625 C-1.80977033 178.36760193 -8.55540253 175.03842536 -15 169 C-22.62458109 159.18046375 -24.32515113 147.91594908 -24.22705078 135.77685547 C-24.22734283 134.80979172 -24.22763489 133.84272797 -24.22793579 132.84635925 C-24.22655528 129.68654035 -24.21105488 126.52696462 -24.1953125 123.3671875 C-24.19157782 121.16187672 -24.188733 118.95656426 -24.18673706 116.75125122 C-24.17913646 110.97435853 -24.15951893 105.19756795 -24.1373291 99.42071533 C-24.11679338 93.51486594 -24.10771888 87.60899988 -24.09765625 81.703125 C-24.07626944 70.1353648 -24.04111669 58.56770691 -24 47 C-31.92 47 -39.84 47 -48 47 C-47.67 45.35 -47.34 43.7 -47 42 C-39.41 42 -31.82 42 -24 42 C-24 29.13 -24 16.26 -24 3 C-18.06 2.505 -18.06 2.505 -12 2 C-3.52941176 0 -3.52941176 0 0 0 Z " fill="#C65928" transform="translate(936,630)"/>
<path d="M0 0 C6.84658038 0.87403154 13.53458493 2.0871212 20.0625 4.375 C24.88958386 6.0485012 29.8187641 7.23858503 34.77685547 8.4465332 C39.2800823 9.55059405 43.73614407 10.76087583 48.1875 12.0625 C53.80360911 13.7010673 59.4405495 15.0629173 65.16015625 16.2890625 C68 17 68 17 70.41796875 17.99609375 C74.78652046 19.69460781 79.41669484 20.28622572 84.015625 21.12109375 C85.00046875 21.41113281 85.9853125 21.70117188 87 22 C87.495 23.485 87.495 23.485 88 25 C74.32064801 28.82888966 60.61060764 32.53398873 46.88623047 36.19775391 C37.64402223 38.66614828 28.4059262 41.14711773 19.1875 43.703125 C18.11260315 44.00071716 18.11260315 44.00071716 17.01599121 44.30432129 C12.4929009 45.5639262 7.99442609 46.8916789 3.5 48.25 C-1.99820575 49.83922497 -7.28603572 50.73668367 -13 51 C-12.64784985 44.42653049 -11.04409964 38.59328406 -9.01342773 32.37255859 C-7.4334945 27.49633326 -6.08051422 22.60656661 -4.875 17.625 C-3.43751835 11.68682319 -1.84813346 5.8244206 0 0 Z " fill="#1B1F31" transform="translate(511,236)"/>
<path d="M0 0 C0.99 0.33 1.98 0.66 3 1 C3.95116824 3.60746665 4.69714141 6.0890351 5.375 8.76953125 C5.58560059 9.56090988 5.79620117 10.35228851 6.01318359 11.16764832 C6.68741295 13.71295474 7.34379614 16.26249372 8 18.8125 C8.44156121 20.4892348 8.88425695 22.16567127 9.328125 23.84179688 C11.39932549 31.69237415 13.39706865 39.55975968 15.3515625 47.44018555 C16.33262457 51.31309059 17.4104362 55.15647877 18.5 59 C20.19455737 65.04041996 21.82477186 71.08720552 23.30859375 77.18359375 C23.80386508 79.20105492 24.31922064 81.21362687 24.84765625 83.22265625 C25.12480469 84.28355469 25.40195312 85.34445312 25.6875 86.4375 C25.93886719 87.38496094 26.19023437 88.33242188 26.44921875 89.30859375 C26.9906681 91.95439943 27.10258791 94.30828852 27 97 C10.36083588 95.81148828 -6.13856421 89.82421549 -22 85 C-22.39158422 80.82310167 -21.30830548 77.92160719 -19.79296875 74.12792969 C-18.51783915 70.70612254 -17.77556177 67.18732611 -17 63.625 C-15.805484 58.19906291 -14.39879496 52.90228174 -12.77197266 47.58935547 C-11.45583831 43.17476947 -10.33081009 38.71185883 -9.1875 34.25 C-6.23014239 22.80414016 -3.13820739 11.39744452 0 0 Z " fill="#1B1F33" transform="translate(476,366)"/>
<path d="M0 0 C0.99 4.95 0.99 4.95 2 10 C-4.15039432 12.08707074 -10.3172942 14.03014001 -16.5625 15.8125 C-17.4587207 16.06894287 -18.35494141 16.32538574 -19.27832031 16.58959961 C-27.25510088 18.84345916 -35.28656489 20.84490548 -43.33618164 22.81958008 C-49.104408 24.24451785 -54.81591892 25.77063694 -60.5 27.5 C-70.35559325 30.49809419 -80.36055643 32.9032965 -90.36376953 35.35302734 C-93.91209872 36.22384345 -97.4562144 37.11089327 -101 38 C-101.66 34.37 -102.32 30.74 -103 27 C-101.53691406 26.62488281 -100.07382812 26.24976563 -98.56640625 25.86328125 C-85.01166356 22.37195665 -85.01166356 22.37195665 -71.5625 18.5 C-64.84255438 16.46707527 -58.06777408 14.73605664 -51.25 13.0625 C-38.63685318 9.96439394 -26.17491844 6.420034 -13.72265625 2.734375 C-12.47355469 2.36828125 -11.22445312 2.0021875 -9.9375 1.625 C-8.87402344 1.30789063 -7.81054688 0.99078125 -6.71484375 0.6640625 C-4 0 -4 0 0 0 Z " fill="#6368F8" transform="translate(697,438)"/>
<path d="M0 0 C0.99 5.445 0.99 5.445 2 11 C1.14994385 11.21615967 0.2998877 11.43231934 -0.57592773 11.6550293 C-19.33662685 16.34943091 -19.33662685 16.34943091 -37.9375 21.625 C-45.49858474 23.93186985 -53.1494968 25.81083125 -60.82641602 27.69091797 C-68.56781745 29.60181305 -76.2334349 31.71546685 -83.87402344 33.99584961 C-89.53902921 35.66572361 -95.19477147 36.90700848 -101 38 C-101.66 34.37 -102.32 30.74 -103 27 C-102.17089111 26.78907715 -101.34178223 26.5781543 -100.48754883 26.36083984 C-86.37686419 22.76413259 -72.28196117 19.16087328 -58.30200195 15.07958984 C-51.75541572 13.18103454 -45.16628311 11.51774332 -38.54541016 9.90039062 C-30.49568712 7.91548369 -22.53567307 5.64241407 -14.57421875 3.33203125 C-13.79481934 3.10596191 -13.01541992 2.87989258 -12.21240234 2.64697266 C-10.78909006 2.23075355 -9.36737989 1.80899478 -7.94775391 1.38037109 C-5.17368799 0.55345116 -2.91606164 0 0 0 Z " fill="#6368F8" transform="translate(689,407)"/>
<path d="M0 0 C0.50403768 1.29009643 1.00309926 2.58213789 1.5 3.875 C1.7784375 4.59429687 2.056875 5.31359375 2.34375 6.0546875 C3 8 3 8 3 10 C2.3922876 10.15557373 1.7845752 10.31114746 1.15844727 10.47143555 C-13.69865288 14.27169871 -13.69865288 14.27169871 -28.4375 18.5 C-36.26650647 20.87024967 -44.18480297 22.81865863 -52.12768555 24.76733398 C-58.04819669 26.2304245 -63.91394992 27.79295856 -69.75 29.5625 C-76.10431496 31.48902022 -82.49621957 33.19988354 -88.9375 34.8125 C-90.24509277 35.14133179 -90.24509277 35.14133179 -91.57910156 35.47680664 C-97.74069213 37 -97.74069213 37 -100 37 C-101.19287411 33.12315913 -102 30.08378077 -102 26 C-101.07441284 25.77449463 -101.07441284 25.77449463 -100.13012695 25.54443359 C-88.23908987 22.63678327 -76.40942572 19.60968202 -64.6574707 16.18115234 C-58.80153227 14.48395561 -52.92268959 12.94593394 -47 11.5 C-39.93311813 9.77375483 -32.92769214 7.88977622 -25.9375 5.875 C-25.05320312 5.62024902 -24.16890625 5.36549805 -23.2578125 5.10302734 C-19.64046556 4.05803125 -16.02485449 3.0072481 -12.41015625 1.953125 C-11.44980469 1.67984375 -10.48945312 1.4065625 -9.5 1.125 C-8.7265625 0.90070313 -7.953125 0.67640625 -7.15625 0.4453125 C-4.72476942 -0.0568411 -2.47609633 -0.07846784 0 0 Z " fill="#6368F8" transform="translate(680,377)"/>
<path d="M0 0 C0.99 4.95 0.99 4.95 2 10 C-2.5396643 12.01356078 -7.19008809 13.10067537 -12 14.25 C-19.13362292 15.99030621 -26.20231186 17.8773342 -33.25 19.9375 C-40.87599657 22.16186832 -48.53505474 24.17014345 -56.25 26.0625 C-65.92633391 28.43700364 -75.46236927 31.12648305 -85 34 C-87.10139833 34.61372615 -89.20525894 35.21914528 -91.3125 35.8125 C-92.54419922 36.16248047 -92.54419922 36.16248047 -93.80078125 36.51953125 C-96 37 -96 37 -100 37 C-100.50403768 35.70990357 -101.00309926 34.41786211 -101.5 33.125 C-101.7784375 32.40570313 -102.056875 31.68640625 -102.34375 30.9453125 C-103 29 -103 29 -103 27 C-95.56110454 24.57014181 -88.09891845 22.4801873 -80.5 20.625 C-73.45085251 18.90290211 -66.46690343 17.02920775 -59.5 15 C-51.88953378 12.78520246 -44.25260012 10.78053413 -36.55249023 8.90332031 C-29.2760994 7.11145407 -22.07974648 5.07316716 -14.88867188 2.96679688 C-4.72244792 0 -4.72244792 0 0 0 Z " fill="#6368F8" transform="translate(672,346)"/>
<path d="M0 0 C0.99 4.95 0.99 4.95 2 10 C-15.64502848 15.6478123 -33.54210052 20.4568995 -51.53149414 24.8684082 C-57.31743522 26.2973132 -63.045837 27.83664246 -68.75 29.5625 C-75.07083004 31.46734404 -81.41983059 33.22618852 -87.8125 34.875 C-88.6674707 35.1026001 -89.52244141 35.3302002 -90.40332031 35.56469727 C-91.20479492 35.76764404 -92.00626953 35.97059082 -92.83203125 36.1796875 C-93.54077393 36.36257324 -94.2495166 36.54545898 -94.97973633 36.73388672 C-97 37 -97 37 -101 36 C-101.66 33.03 -102.32 30.06 -103 27 C-92.7078351 23.99295182 -82.41816119 21.04190606 -72 18.5 C-64.22722022 16.60279783 -56.5457215 14.46894245 -48.86425781 12.23266602 C-42.03955116 10.26039422 -35.17550816 8.51377451 -28.2734375 6.83520508 C-21.90911399 5.27144708 -15.63216034 3.48105825 -9.37792969 1.52319336 C-6.04421082 0.49987871 -3.53314909 0 0 0 Z " fill="#6368F8" transform="translate(664,315)"/>
<path d="M0 0 C3.92422041 2.98240751 6.67145669 5.50427698 7.46875 10.55078125 C7.66980173 15.53518865 6.98969153 19.17345243 4.125 23.375 C-0.02433208 27.558343 -3.72700799 29.5102737 -9.625 29.8125 C-14.54764341 29.76219561 -17.03267991 28.54661085 -20.46875 25.078125 C-23.99943368 20.80207476 -25.47672698 17.0162796 -25.21875 11.39453125 C-24.32694036 6.1551496 -21.87823044 3.15751974 -17.75 -0.0625 C-12.12638297 -2.85017282 -5.5928168 -2.85641716 0 0 Z " fill="#1B1F31" transform="translate(665.875,246.625)"/>
<path d="M0 0 C14 0 14 0 19 3 C20.52846661 6.05693322 20.23242445 8.62984547 20 12 C18.5 14.4375 18.5 14.4375 17 16 C18.2375 17.299375 18.2375 17.299375 19.5 18.625 C21.43080098 20.96954405 21.99675583 21.98410359 22.625 25.0625 C21.78693038 29.00142721 20.08273388 30.49079801 17 33 C11.61483519 34.79505494 5.67646212 34 0 34 C0 22.78 0 11.56 0 0 Z " fill="#010102" transform="translate(414,952)"/>
<path d="M0 0 C14.65 0 14.65 0 20.8125 4.25 C22.78552408 7.15761444 22.34721002 9.58576818 22 13 C20.5 16.4375 20.5 16.4375 19 19 C18.34 19 17.68 19 17 19 C19.50975844 24.10915111 22.13194953 29.08334206 25 34 C22.2421875 34.3359375 22.2421875 34.3359375 19 34 C16.8828125 31.6640625 16.8828125 31.6640625 15.125 28.625 C14.52945313 27.62726562 13.93390625 26.62953125 13.3203125 25.6015625 C12 23 12 23 12 21 C9.69 21 7.38 21 5 21 C5 25.29 5 29.58 5 34 C3.35 34 1.7 34 0 34 C0 22.78 0 11.56 0 0 Z " fill="#010102" transform="translate(526,952)"/>
<path d="M0 0 C4.50993244 3.55037235 6.67863273 6.6127003 7.4375 12.25 C6.87002539 17.1140681 5.16039529 20.29261322 2 24 C-1.58571448 26.20659353 -4.8413157 26.50922665 -9 26 C-13.84664831 23.52915968 -16.18671898 21.13762955 -18 16 C-18.7682215 9.96397393 -17.42266107 6.81022636 -14 2 C-9.78647358 -1.85236701 -5.23988682 -1.56911311 0 0 Z " fill="#1B1F32" transform="translate(732,859)"/>
<path d="M0 0 C4.11024 1.81615256 6.79472499 4.07951109 9 8 C9.84368791 12.65831102 10.11002416 17.00961185 7.75390625 21.234375 C4.3961428 25.28713687 2.0543687 26.76742996 -3.3125 27.375 C-8.04467594 26.89376177 -9.74863737 25.4025888 -13 22 C-15.38729583 17.98500246 -15.73574784 13.57599269 -15 9 C-11.31068555 2.01665479 -8.0287617 -0.84513281 0 0 Z " fill="#1B1F32" transform="translate(598,858)"/>
<path d="M0 0 C15.88571429 0 15.88571429 0 20.3125 4.1875 C22.50468298 7.84113829 22.6633439 9.79882196 22 14 C20.20104326 16.96728289 18.15299143 19.42350428 15 21 C13.29297265 21.06996014 11.58331997 21.08440154 9.875 21.0625 C8.26625 21.041875 6.6575 21.02125 5 21 C5 25.29 5 29.58 5 34 C3.35 34 1.7 34 0 34 C0 22.78 0 11.56 0 0 Z " fill="#010203" transform="translate(558,952)"/>
<path d="M0 0 C0.66 0 1.32 0 2 0 C3.42993164 1.45117188 3.42993164 1.45117188 5.09765625 3.46875 C8.99190231 8.04855299 13.16376023 12.27668652 17.4375 16.5 C21.1809375 20.2125 21.1809375 20.2125 25 24 C25.33 16.41 25.66 8.82 26 1 C27.65 1 29.3 1 31 1 C31 12.55 31 24.1 31 36 C26.93378044 32.51466895 23.11323733 29.23815147 19.37890625 25.4765625 C18.58935547 24.68378906 17.79980469 23.89101563 16.98632812 23.07421875 C16.18646484 22.26597656 15.38660156 21.45773437 14.5625 20.625 C13.73556641 19.79355469 12.90863281 18.96210937 12.05664062 18.10546875 C10.03545605 16.07260103 8.01740511 14.03661849 6 12 C5.67 19.59 5.34 27.18 5 35 C3.35 35 1.7 35 0 35 C0 23.45 0 11.9 0 0 Z " fill="#010203" transform="translate(618,951)"/>
<path d="M0 0 C1.65 0 3.3 0 5 0 C5 4.95 5 9.9 5 15 C10.94 15 16.88 15 23 15 C23 10.05 23 5.1 23 0 C24.65 0 26.3 0 28 0 C28 11.22 28 22.44 28 34 C26.35 34 24.7 34 23 34 C23 29.05 23 24.1 23 19 C17.06 19 11.12 19 5 19 C5 23.95 5 28.9 5 34 C3.35 34 1.7 34 0 34 C0 22.78 0 11.56 0 0 Z " fill="#010102" transform="translate(737,952)"/>
<path d="M0 0 C2.6687885 3.23943552 4.26395987 6.56229407 5.91796875 10.41015625 C6.18007645 11.0188707 6.44218414 11.62758514 6.7122345 12.25474548 C7.26191694 13.5353053 7.80888368 14.8170339 8.35327148 16.09985352 C9.18770639 18.06298555 10.03366336 20.02086227 10.88085938 21.97851562 C11.41475964 23.22626443 11.94798629 24.47430173 12.48046875 25.72265625 C12.96410889 26.85453369 13.44774902 27.98641113 13.94604492 29.15258789 C15 32 15 32 15 35 C13.35 35 11.7 35 10 35 C9.01 32.03 8.02 29.06 7 26 C2.38 26 -2.24 26 -7 26 C-7.99 28.97 -8.98 31.94 -10 35 C-11.65 35 -13.3 35 -15 35 C-11.97844607 26.81599212 -8.67812107 18.77075395 -5.25 10.75 C-4.84918213 9.80874268 -4.44836426 8.86748535 -4.03540039 7.89770508 C-3.65762451 7.01880615 -3.27984863 6.13990723 -2.890625 5.234375 C-2.55063477 4.44256836 -2.21064453 3.65076172 -1.86035156 2.83496094 C-1 1 -1 1 0 0 Z " fill="#010102" transform="translate(787,951)"/>
<path d="M0 0 C0.66 0 1.32 0 2 0 C3.99839156 4.661142 5.9920982 9.3242485 7.98144531 13.98925781 C8.65918895 15.57672445 9.33822092 17.16364168 10.01855469 18.75 C10.99491297 21.02722049 11.96665631 23.30636152 12.9375 25.5859375 C13.24373291 26.29744965 13.54996582 27.00896179 13.86547852 27.74203491 C16 32.77225659 16 32.77225659 16 35 C14.35 35 12.7 35 11 35 C10.01 32.03 9.02 29.06 8 26 C3.38 26.33 -1.24 26.66 -6 27 C-6.99 29.64 -7.98 32.28 -9 35 C-10.65 35 -12.3 35 -14 35 C-11.57606156 27.26490635 -8.50605264 19.88362854 -5.3125 12.4375 C-4.80138672 11.23802734 -4.29027344 10.03855469 -3.76367188 8.80273438 C-2.51224198 5.86713715 -1.25761707 2.93295065 0 0 Z " fill="#010102" transform="translate(595,951)"/>
<path d="M0 0 C0.66 0 1.32 0 2 0 C3.99839156 4.661142 5.9920982 9.3242485 7.98144531 13.98925781 C8.65918895 15.57672445 9.33822092 17.16364168 10.01855469 18.75 C10.99491297 21.02722049 11.96665631 23.30636152 12.9375 25.5859375 C13.24373291 26.29744965 13.54996582 27.00896179 13.86547852 27.74203491 C16 32.77225659 16 32.77225659 16 35 C14.35 35 12.7 35 11 35 C10.01 32.03 9.02 29.06 8 26 C3.38 26.33 -1.24 26.66 -6 27 C-6.99 29.64 -7.98 32.28 -9 35 C-10.65 35 -12.3 35 -14 35 C-11.57606156 27.26490635 -8.50605264 19.88362854 -5.3125 12.4375 C-4.80138672 11.23802734 -4.29027344 10.03855469 -3.76367188 8.80273438 C-2.51224198 5.86713715 -1.25761707 2.93295065 0 0 Z " fill="#010102" transform="translate(503,951)"/>
<path d="M0 0 C0.66 0 1.32 0 2 0 C3.83680114 4.34007585 5.66978075 8.68173819 7.49926758 13.02490234 C8.1219219 14.5015798 8.74561059 15.97782155 9.37036133 17.45361328 C10.26917717 19.57730703 11.16423796 21.7025498 12.05859375 23.828125 C12.3377916 24.48556702 12.61698944 25.14300903 12.90464783 25.82037354 C14.17326715 28.8449478 15.34383519 31.77947219 16 35 C14.35 35 12.7 35 11 35 C10.81050781 34.15115234 10.81050781 34.15115234 10.6171875 33.28515625 C9.71968384 30.59736899 9.00456223 29.03467368 7 27 C2.32620308 25.95838013 -2.22515491 25.89786428 -7 26 C-7.12375 26.928125 -7.2475 27.85625 -7.375 28.8125 C-8 32 -8 32 -10 35 C-11.32 35 -12.64 35 -14 35 C-11.57606156 27.26490635 -8.50605264 19.88362854 -5.3125 12.4375 C-4.80138672 11.23802734 -4.29027344 10.03855469 -3.76367188 8.80273438 C-2.51224198 5.86713715 -1.25761707 2.93295065 0 0 Z " fill="#010102" transform="translate(714,951)"/>
<path d="M0 0 C3 1.4375 3 1.4375 5 4 C6.51849534 8.73518962 6.51479319 11.95134721 4.3125 16.4375 C0.8584392 20.26497278 0.8584392 20.26497278 -2 21 C-6.0011935 20.71420046 -9.66716145 20.34533083 -13 18 C-15.51218023 13.79780762 -15.94428314 9.78096509 -15 5 C-10.82696384 -0.24304543 -6.53538661 -1.25171309 0 0 Z " fill="#6368F8" transform="translate(561,438)"/>
<path d="M0 0 C13 0 13 0 17 2 C19.33909307 5.5086396 19.41291057 6.87089433 19 11 C17.625 13.875 17.625 13.875 16 16 C15.34 16 14.68 16 14 16 C14.3609375 16.62648438 14.721875 17.25296875 15.09375 17.8984375 C15.78984375 19.12433594 15.78984375 19.12433594 16.5 20.375 C16.9640625 21.18710937 17.428125 21.99921875 17.90625 22.8359375 C19 25 19 25 19 27 C18.01 27 17.02 27 16 27 C14.61328125 25.3203125 14.61328125 25.3203125 13.3125 23.125 C12.87550781 22.40570312 12.43851563 21.68640625 11.98828125 20.9453125 C11 19 11 19 11 17 C8.36 17 5.72 17 3 17 C3 20.3 3 23.6 3 27 C2.01 27 1.02 27 0 27 C0 18.09 0 9.18 0 0 Z " fill="#5C61E4" transform="translate(745,858)"/>
<path d="M0 0 C2.9375 1.9375 2.9375 1.9375 5 5 C6.01269957 10.01409785 5.81540354 13.71113633 3.0625 18.0625 C-0.90013102 20.56947064 -4.30275258 21.60417494 -9 21 C-12.27994245 18.47171102 -14.65952713 16.19367965 -15.30859375 12.01171875 C-15.65010652 5.85413996 -15.65010652 5.85413996 -13.73046875 3.33203125 C-8.83165748 -0.7324326 -6.18162009 -1.46682511 0 0 Z " fill="#6368F8" transform="translate(553,407)"/>
<path d="M0 0 C3.5386994 1.65139305 4.81070153 2.71605229 7 6 C7.75920567 9.83252863 7.85954319 13.44523805 5.9375 16.921875 C3.85495381 19.29869402 2.08912601 20.72612621 -1.00390625 21.50390625 C-4.58759535 21.71471149 -6.82893761 21.10412493 -9.875 19.25 C-12.78565508 16.16812992 -13.79996385 14.31452329 -14.4375 10.125 C-13.82244681 5.7317629 -12.08098355 4.15434031 -9 1 C-5.93570224 -0.53214888 -3.3834358 -0.22938548 0 0 Z " fill="#6368F9" transform="translate(543,376)"/>
<path d="M0 0 C3.45595543 3.023961 4.78646797 4.93233987 5.6875 9.4375 C4.76479097 14.21881043 3.02972258 17.19564204 -1 20 C-4.19559256 20.88018953 -6.80138227 20.8600335 -10 20 C-12.75569447 17.81840855 -14.43588747 16.12822506 -16 13 C-16.37510464 9.74909308 -16.66540869 7.15611549 -14.98828125 4.2421875 C-10.7332745 -1.0478209 -6.42273473 -2.01179045 0 0 Z " fill="#6469F9" transform="translate(537,346)"/>
<path d="M0 0 C2.93423195 1.79646854 4.47205355 2.9441071 6 6 C6.54724071 11.69130337 5.59333707 14.56117185 2 19 C-1.47263273 20.73631636 -5.21193013 20.60190402 -9 20 C-11.75569447 17.81840855 -13.43588747 16.12822506 -15 13 C-15.50312928 8.63954624 -15.24536764 6.44984067 -13.125 2.5625 C-9.51502056 -1.28470666 -4.89295724 -0.96412951 0 0 Z " fill="#6469F9" transform="translate(569,469)"/>
<path d="M0 0 C13 0 13 0 18 4 C19.0625 7.4375 19.0625 7.4375 19 11 C17.1875 13.9375 17.1875 13.9375 15 16 C14.34 16 13.68 16 13 16 C14.98 19.3 16.96 22.6 19 26 C18.01 26.33 17.02 26.66 16 27 C15.6596875 26.36191406 15.319375 25.72382812 14.96875 25.06640625 C12.2914877 20.15892858 12.2914877 20.15892858 7.8203125 17.1796875 C5.39243788 16.86489455 5.39243788 16.86489455 2 17 C2 20.3 2 23.6 2 27 C1.34 27 0.68 27 0 27 C0 18.09 0 9.18 0 0 Z " fill="#6469FB" transform="translate(643,858)"/>
<path d="M0 0 C2.3046875 1.02734375 2.3046875 1.02734375 4 2 C3.67 3.32 3.34 4.64 3 6 C2.505 5.835 2.01 5.67 1.5 5.5 C-2.0629869 4.78740262 -5.36534196 4.88083088 -9 5 C-10.29633621 6.06645115 -10.29633621 6.06645115 -10.0625 8.5625 C-10.041875 9.366875 -10.02125 10.17125 -10 11 C-9.16855469 11.38671875 -8.33710937 11.7734375 -7.48046875 12.171875 C-6.39378906 12.69265625 -5.30710937 13.2134375 -4.1875 13.75 C-3.10855469 14.26046875 -2.02960937 14.7709375 -0.91796875 15.296875 C1.96285978 16.97832244 3.36293114 18.13230696 5 21 C5.40199287 24.85913158 5.38640109 27.85428947 3 31 C-1.43251146 33.88628653 -4.76615576 34.45910914 -10 34 C-13.875 33.125 -13.875 33.125 -17 32 C-17.33 31.34 -17.66 30.68 -18 30 C-17.01 29.01 -16.02 28.02 -15 27 C-14.01 27.66 -13.02 28.32 -12 29 C-9.78417411 29.31560324 -9.78417411 29.31560324 -7.4375 29.25 C-6.65246094 29.25515625 -5.86742187 29.2603125 -5.05859375 29.265625 C-2.77709032 29.18429262 -2.77709032 29.18429262 -1 27 C-0.85431873 23.99951222 -0.85431873 23.99951222 -2 21 C-4.65396393 19.08240853 -4.65396393 19.08240853 -7.9375 17.8125 C-13.82244556 15.26633166 -13.82244556 15.26633166 -16 12 C-16.5 8.625 -16.5 8.625 -16 5 C-11.5406847 -0.51546893 -6.86696853 -1.07650497 0 0 Z " fill="#010102" transform="translate(690,952)"/>
<path d="M0 0 C2.30859375 -0.2890625 2.30859375 -0.2890625 5 0 C6.66015625 1.9765625 6.66015625 1.9765625 8.0625 4.625 C10.22758009 8.61930289 12.44829619 12.17244428 15 16 C17.97 10.72 20.94 5.44 24 0 C25.98 0 27.96 0 30 0 C28.75133587 2.35488357 27.50110525 4.70891371 26.25 7.0625 C25.90195312 7.71927734 25.55390625 8.37605469 25.1953125 9.05273438 C24.84726562 9.70693359 24.49921875 10.36113281 24.140625 11.03515625 C23.78967773 11.69717041 23.43873047 12.35918457 23.07714844 13.04125977 C22.37246677 14.32268793 21.63686388 15.58770714 20.86816406 16.83178711 C18.42731952 20.78856498 17.45819461 23.80516998 17.25 28.4375 C17.19328125 29.48808594 17.1365625 30.53867187 17.078125 31.62109375 C17.05234375 32.40613281 17.0265625 33.19117188 17 34 C15.35 34 13.7 34 12 34 C12.05542969 33.36578125 12.11085938 32.7315625 12.16796875 32.078125 C12.24333014 21.16579559 6.48904129 12.95352649 0.99389648 3.87255859 C0 2 0 2 0 0 Z " fill="#010102" transform="translate(440,952)"/>
<path d="M0 0 C0.99 0 1.98 0 3 0 C4.33891561 3.28942366 5.67017703 6.58189109 7 9.875 C7.3815625 10.81214844 7.763125 11.74929688 8.15625 12.71484375 C8.5171875 13.61074219 8.878125 14.50664063 9.25 15.4296875 C9.58515625 16.25710449 9.9203125 17.08452148 10.265625 17.93701172 C11 20 11 20 11 22 C11.66 22 12.32 22 13 22 C15.90050157 14.32435344 15.90050157 14.32435344 14.6875 6.5 C14.130625 5.345 13.57375 4.19 13 3 C13 2.01 13 1.02 13 0 C13.99 0.33 14.98 0.66 16 1 C17.1875 4.0625 17.1875 4.0625 18 7 C19.54571278 4.68143083 20.79618552 2.49361571 22 0 C22.66 0 23.32 0 24 0 C23.51642286 3.30444379 22.93385841 6.17527521 21.75 9.3125 C20.74945638 14.23183944 22.08953273 17.47034373 24 22 C24.66 22 25.32 22 26 22 C26.391875 20.783125 26.78375 19.56625 27.1875 18.3125 C29.24277915 12.12690026 31.62676756 6.06909639 34 0 C34.99 0 35.98 0 37 0 C34.58650007 9.35518546 30.75743534 18.126276 27 27 C26.01 27 25.02 27 24 27 C22.35 23.37 20.7 19.74 19 16 C17.41028035 18.38457948 16.13258407 20.6304124 14.875 23.1875 C14.52179687 23.90292969 14.16859375 24.61835937 13.8046875 25.35546875 C13.53914062 25.89816406 13.27359375 26.44085937 13 27 C10 26 10 26 8.74145508 23.71508789 C8.33822021 22.72758545 7.93498535 21.74008301 7.51953125 20.72265625 C7.07802734 19.65208984 6.63652344 18.58152344 6.18164062 17.47851562 C5.72982422 16.35123047 5.27800781 15.22394531 4.8125 14.0625 C4.34908203 12.93908203 3.88566406 11.81566406 3.40820312 10.65820312 C0 2.31086616 0 2.31086616 0 0 Z " fill="#5D62E6" transform="translate(674,858)"/>
<path d="M0 0 C11.21667293 2.04731506 11.21667293 2.04731506 15 4 C16.45978637 6.91957275 15.45980699 8.56067046 14.56640625 11.6640625 C14.24736328 12.78554688 13.92832031 13.90703125 13.59960938 15.0625 C13.25736328 16.238125 12.91511719 17.41375 12.5625 18.625 C12.05493164 20.40003906 12.05493164 20.40003906 11.53710938 22.2109375 C10.69782177 25.14253365 9.8518574 28.07203632 9 31 C8.34 31 7.68 31 7 31 C6.00925494 27.52402681 5.0345767 24.04373579 4.0625 20.5625 C3.78470703 19.58861328 3.50691406 18.61472656 3.22070312 17.61132812 C1.58375608 11.7143743 0.49847199 6.10154954 0 0 Z " fill="#1D2136" transform="translate(711,289)"/>
<path d="M0 0 C4 1 4 1 5.28027344 2.58227539 C5.63637695 3.24735107 5.99248047 3.91242676 6.359375 4.59765625 C6.75253906 5.31630859 7.14570313 6.03496094 7.55078125 6.77539062 C7.94652344 7.53013672 8.34226562 8.28488281 8.75 9.0625 C9.16121094 9.82111328 9.57242187 10.57972656 9.99609375 11.36132812 C11.00926383 13.23451468 12.0062056 15.11646233 13 17 C16.3989636 11.36905031 19.76352732 5.72606705 23 0 C23.99 0 24.98 0 26 0 C26 8.91 26 17.82 26 27 C25.34 27 24.68 27 24 27 C23.505 17.1 23.505 17.1 23 7 C20.49204836 11.55677855 20.49204836 11.55677855 18.00463867 16.12475586 C15.33333333 20.88888889 15.33333333 20.88888889 12 22 C8.04 15.07 8.04 15.07 4 8 C3.67 14.27 3.34 20.54 3 27 C2.01 27 1.02 27 0 27 C0 18.09 0 9.18 0 0 Z " fill="#5D62E8" transform="translate(386,858)"/>
<path d="M0 0 C0.99 0 1.98 0 3 0 C4.67223282 4.12276549 6.33684063 8.24856675 8 12.375 C8.47695313 13.550625 8.95390625 14.72625 9.4453125 15.9375 C9.89648438 17.05898438 10.34765625 18.18046875 10.8125 19.3359375 C11.23144531 20.37282715 11.65039062 21.4097168 12.08203125 22.47802734 C13 25 13 25 13 27 C12.01 27 11.02 27 10 27 C8.515 23.535 8.515 23.535 7 20 C3.04 19.67 -0.92 19.34 -5 19 C-5.268125 20.134375 -5.53625 21.26875 -5.8125 22.4375 C-6.204375 23.613125 -6.59625 24.78875 -7 26 C-7.99 26.33 -8.98 26.66 -10 27 C-9.43343202 20.88106577 -6.89348871 15.67636193 -4.4375 10.125 C-4.01275391 9.15046875 -3.58800781 8.1759375 -3.15039062 7.171875 C-2.10624496 4.77855235 -1.05597786 2.38811986 0 0 Z " fill="#5D62E6" transform="translate(484,858)"/>
<path d="M0 0 C0.99 0 1.98 0 3 0 C4.67223282 4.12276549 6.33684063 8.24856675 8 12.375 C8.47695313 13.550625 8.95390625 14.72625 9.4453125 15.9375 C9.89648438 17.05898438 10.34765625 18.18046875 10.8125 19.3359375 C11.23144531 20.37282715 11.65039062 21.4097168 12.08203125 22.47802734 C13 25 13 25 13 27 C12.01 27 11.02 27 10 27 C8.515 23.535 8.515 23.535 7 20 C3.04 19.67 -0.92 19.34 -5 19 C-5.268125 20.134375 -5.53625 21.26875 -5.8125 22.4375 C-6.204375 23.613125 -6.59625 24.78875 -7 26 C-7.99 26.33 -8.98 26.66 -10 27 C-9.43343202 20.88106577 -6.89348871 15.67636193 -4.4375 10.125 C-4.01275391 9.15046875 -3.58800781 8.1759375 -3.15039062 7.171875 C-2.10624496 4.77855235 -1.05597786 2.38811986 0 0 Z " fill="#5D62E6" transform="translate(428,858)"/>
<path d="M0 0 C0.99 0 1.98 0 3 0 C4.73821706 1.96259965 6.27637565 3.88812039 7.8125 6 C8.22564453 6.55300781 8.63878906 7.10601563 9.06445312 7.67578125 C10.38406684 9.44475494 11.69181692 11.22255652 13 13 C14.98 15.64 16.96 18.28 19 21 C19.33 14.07 19.66 7.14 20 0 C20.66 0 21.32 0 22 0 C22 8.91 22 17.82 22 27 C18.41343853 25.20671926 17.35446532 24.56505337 15.0546875 21.62890625 C14.53519531 20.97212891 14.01570313 20.31535156 13.48046875 19.63867188 C12.68576172 18.6109668 12.68576172 18.6109668 11.875 17.5625 C11.33746094 16.88123047 10.79992187 16.19996094 10.24609375 15.49804688 C8.05906661 12.71381407 5.96543212 9.94814817 4 7 C3.67 13.6 3.34 20.2 3 27 C2.01 27 1.02 27 0 27 C0 18.09 0 9.18 0 0 Z " fill="#5F64ED" transform="translate(446,858)"/>
<path d="M0 0 C-0.47939368 4.71403788 -0.96834048 8.66579301 -3 13 C-10.36675947 13.35935412 -16.40701735 10.96011466 -23 8 C-23 7.01 -23 6.02 -23 5 C-19.91882573 4.15854044 -16.83474379 3.32826938 -13.75 2.5 C-12.87730469 2.26152344 -12.00460937 2.02304687 -11.10546875 1.77734375 C-10.26113281 1.55175781 -9.41679688 1.32617188 -8.546875 1.09375 C-7.77182617 0.88427734 -6.99677734 0.67480469 -6.19824219 0.45898438 C-4 0 -4 0 0 0 Z " fill="#1D2138" transform="translate(672,495)"/>
<path d="M0 0 C4.50993244 3.55037235 6.67863273 6.6127003 7.4375 12.25 C6.87002539 17.1140681 5.16039529 20.29261322 2 24 C-1.58571448 26.20659353 -4.8413157 26.50922665 -9 26 C-13.84664831 23.52915968 -16.18671898 21.13762955 -18 16 C-18.7682215 9.96397393 -17.42266107 6.81022636 -14 2 C-9.78647358 -1.85236701 -5.23988682 -1.56911311 0 0 Z M-14 6 C-15.59671189 9.19342379 -15.37418163 12.52545631 -15 16 C-13.39357553 19.61445505 -11.57406313 22.21296843 -8 24 C-4.01046061 23.92875823 -1.78077432 23.61640078 1.375 21.125 C4.01193123 17.67670532 4.41118032 14.36635946 4.33984375 10.0703125 C3.69786176 6.15938773 1.97893106 4.59864199 -1 2 C-7.33345274 -0.18792004 -9.64477117 1.54107524 -14 6 Z " fill="#5B60E3" transform="translate(732,859)"/>
<path d="M0 0 C4.11024 1.81615256 6.79472499 4.07951109 9 8 C9.84368791 12.65831102 10.11002416 17.00961185 7.75390625 21.234375 C4.3961428 25.28713687 2.0543687 26.76742996 -3.3125 27.375 C-8.04467594 26.89376177 -9.74863737 25.4025888 -13 22 C-15.38729583 17.98500246 -15.73574784 13.57599269 -15 9 C-11.31068555 2.01665479 -8.0287617 -0.84513281 0 0 Z M-9.5 4.875 C-12.52708211 9.16336632 -12.4978725 12.8612445 -12 18 C-10.75114491 20.93480945 -9.73422661 22.42310766 -7.25 24.375 C-3.81792041 25.32835544 -1.42177384 24.91654656 2 24 C5.26344782 21.25183342 6.2950847 18.66068403 7 14.5625 C7.35323415 9.96277707 6.00643886 7.5369869 3 4 C1.43058802 2.43058802 -0.14134994 2.7550153 -2.3125 2.6875 C-5.72585322 2.71463317 -6.68662235 2.76496676 -9.5 4.875 Z " fill="#5E63EB" transform="translate(598,858)"/>
<path d="M0 0 C0.99 0 1.98 0 3 0 C3.33 4.62 3.66 9.24 4 14 C8.29 9.38 12.58 4.76 17 0 C17.99 0.33 18.98 0.66 20 1 C17.03 4.3 14.06 7.6 11 11 C12.67446794 15.18616985 13.86713141 17.34514486 16.625 20.6875 C20 24.78571429 20 24.78571429 20 27 C16.38502261 25.52841629 14.59408489 23.58537669 12.25 20.5 C11.63640625 19.7059375 11.0228125 18.911875 10.390625 18.09375 C9 16 9 16 9 14 C6.37574221 15.41082032 6.37574221 15.41082032 4 18 C3.26848111 20.99304558 3.07226313 23.92553213 3 27 C2.01 27 1.02 27 0 27 C0 18.09 0 9.18 0 0 Z " fill="#5E63E9" transform="translate(770,858)"/>
<path d="M0 0 C0.99 0 1.98 0 3 0 C3.03738281 1.24136719 3.07476563 2.48273437 3.11328125 3.76171875 C3.1789595 5.40367511 3.2454062 7.04560087 3.3125 8.6875 C3.33505859 9.50412109 3.35761719 10.32074219 3.38085938 11.16210938 C3.58857885 15.82635567 3.86555638 19.28700253 7 23 C10.74008713 24.08802535 12.87078128 24.59432564 16.375 22.75 C18.91428079 20.01538992 19.13884381 17.34614619 19.31640625 13.76953125 C19.35830078 12.96708984 19.40019531 12.16464844 19.44335938 11.33789062 C19.48267578 10.50451172 19.52199219 9.67113281 19.5625 8.8125 C19.60568359 7.96751953 19.64886719 7.12253906 19.69335938 6.25195312 C19.79931518 4.16815567 19.9001502 2.08409897 20 0 C20.99 0 21.98 0 23 0 C23.75780409 18.52409999 23.75780409 18.52409999 19 25 C15.20242067 27.33335802 11.36524185 27.85916291 7 27 C3.67590503 24.39853437 1.62041144 21.86703407 0 18 C-0.22705078 15.89355469 -0.22705078 15.89355469 -0.1953125 13.671875 C-0.18886719 12.87265625 -0.18242188 12.0734375 -0.17578125 11.25 C-0.15902344 10.425 -0.14226563 9.6 -0.125 8.75 C-0.11597656 7.90953125 -0.10695313 7.0690625 -0.09765625 6.203125 C-0.07415817 4.13529396 -0.03828908 2.06761005 0 0 Z " fill="#5A5FE0" transform="translate(613,858)"/>
<path d="M0 0 C3 1.8125 3 1.8125 5 4 C5 4.99 5 5.98 5 7 C4.01 6.67 3.02 6.34 2 6 C2 5.34 2 4.68 2 4 C-4.23261142 2.66955723 -4.23261142 2.66955723 -10 4.8125 C-12.53966585 7.59025953 -12.95812681 8.45564849 -13.25 12.25 C-12.97920358 16.31194623 -12.15128424 18.57388065 -10 22 C-7.11279881 24.36721366 -7.11279881 24.36721366 -3.5 23.75 C0.09120499 23.20500944 0.09120499 23.20500944 3 21 C3.72965366 18.43717258 3.72965366 18.43717258 4 16 C2.02 16 0.04 16 -2 16 C-2 15.34 -2 14.68 -2 14 C0.64 14 3.28 14 6 14 C6 18.29 6 22.58 6 27 C5.34 27 4.68 27 4 27 C3.67 26.34 3.34 25.68 3 25 C2.484375 25.33 1.96875 25.66 1.4375 26 C-2.02908486 27.42218866 -4.2717244 27.5055289 -8 27 C-11.2702574 24.88890315 -14.2424884 22.5150232 -16 19 C-16.40678241 14.14207935 -16.62085653 9.56847965 -14.8125 5 C-10.55919425 0.3066971 -6.19170485 -1.14846138 0 0 Z " fill="#6065F1" transform="translate(517,858)"/>
<path d="M0 0 C9.16988417 -0.48262548 9.16988417 -0.48262548 12.6875 1.5625 C14.56186454 5.04346271 13.97303562 7.2468626 13 11 C11 13 11 13 8.3984375 13.1953125 C5.59895833 13.13020833 2.79947917 13.06510417 0 13 C0 8.71 0 4.42 0 0 Z " fill="#1F233C" transform="translate(645,860)"/>
<path d="M0 0 C2.9375 1.375 2.9375 1.375 5 3 C5 3.66 5 4.32 5 5 C4.29875 4.67 3.5975 4.34 2.875 4 C-0.29106128 2.89876129 -2.67064704 2.77804314 -6 3 C-6.99 3.495 -6.99 3.495 -8 4 C-8 5.98 -8 7.96 -8 10 C-7.16855469 10.25394531 -6.33710937 10.50789062 -5.48046875 10.76953125 C-4.39378906 11.11371094 -3.30710937 11.45789063 -2.1875 11.8125 C-0.56908203 12.31716797 -0.56908203 12.31716797 1.08203125 12.83203125 C3.84271583 13.93704422 5.30726793 14.5860687 7 17 C6.89040318 23.13742192 6.89040318 23.13742192 4.25 25.6953125 C0.36445627 27.94838821 -3.64081523 27.54929954 -8 27 C-11.125 25.5 -11.125 25.5 -13 24 C-12.505 22.515 -12.505 22.515 -12 21 C-11.13375 21.495 -10.2675 21.99 -9.375 22.5 C-5.84121396 24.07057157 -3.80902261 24.42322473 0 24 C0.99 23.34 1.98 22.68 3 22 C2.67 20.35 2.34 18.7 2 17 C1.15695312 16.73445312 0.31390625 16.46890625 -0.5546875 16.1953125 C-1.65039062 15.84210937 -2.74609375 15.48890625 -3.875 15.125 C-5.51082031 14.60292969 -5.51082031 14.60292969 -7.1796875 14.0703125 C-10 13 -10 13 -12 11 C-12.4375 7.625 -12.4375 7.625 -12 4 C-8.43754928 -0.21016903 -5.35404223 -0.66925528 0 0 Z " fill="#5C61E4" transform="translate(806,858)"/>
<path d="M0 0 C1.588125 -0.061875 3.17625 -0.12375 4.8125 -0.1875 C6.15248047 -0.23970703 6.15248047 -0.23970703 7.51953125 -0.29296875 C10 0 10 0 11.80078125 1.29296875 C13.79958597 4.13817287 13.35896649 6.64964607 13 10 C11.80078125 11.70703125 11.80078125 11.70703125 10 13 C7.51953125 13.29296875 7.51953125 13.29296875 4.8125 13.1875 C3.224375 13.125625 1.63625 13.06375 0 13 C0 8.71 0 4.42 0 0 Z " fill="#1D2136" transform="translate(748,860)"/>
<path d="M0 0 C7.15789474 -0.35789474 7.15789474 -0.35789474 10.5 1.0625 C12 3 12 3 12.5 6.5 C12 10 12 10 10.5 11.9375 C6.87802345 13.47684003 3.92037077 13.19601854 0 13 C0 8.71 0 4.42 0 0 Z " fill="#191D2C" transform="translate(531,956)"/>
<path d="M0 0 C7.2 -0.36 7.2 -0.36 10.5 1.125 C12 3 12 3 12.5 5.9375 C12 9 12 9 10.5 11.375 C6.86748926 13.73613198 4.28156703 13.2854378 0 13 C0 8.71 0 4.42 0 0 Z " fill="#191D2C" transform="translate(563,956)"/>
<path d="M0 0 C5.61 0 11.22 0 17 0 C17 0.66 17 1.32 17 2 C12.05 2 7.1 2 2 2 C2 5.3 2 8.6 2 12 C6.29 12 10.58 12 15 12 C15 12.66 15 13.32 15 14 C10.71 14 6.42 14 2 14 C2 17.63 2 21.26 2 25 C6.95 25 11.9 25 17 25 C17 25.66 17 26.32 17 27 C11.39 27 5.78 27 0 27 C0 18.09 0 9.18 0 0 Z " fill="#666BFF" transform="translate(530,858)"/>
<path d="M0 0 C0.99 0 1.98 0 3 0 C4.54295801 2.14775034 5.8759056 4.21834754 7.1875 6.5 C7.55552734 7.12003906 7.92355469 7.74007812 8.30273438 8.37890625 C9.2116735 9.9134788 10.1071247 11.4560256 11 13 C11.39832031 12.39671875 11.79664063 11.7934375 12.20703125 11.171875 C13.00173828 9.97304688 13.00173828 9.97304688 13.8125 8.75 C14.59560547 7.56664062 14.59560547 7.56664062 15.39453125 6.359375 C18.5139589 1.77510663 18.5139589 1.77510663 20 0 C20.66 0 21.32 0 22 0 C20.69580638 3.57235645 19.08857462 6.43894938 16.9375 9.5625 C13.43475614 15.21291162 13.0224869 20.456312 13 27 C12.01 27 11.02 27 10 27 C10.03222656 26.37996094 10.06445312 25.75992188 10.09765625 25.12109375 C9.98511735 16.5306247 6.47246924 10.97668377 1.93359375 3.9921875 C0 1 0 1 0 0 Z " fill="#5C61E6" transform="translate(559,858)"/>
<path d="M0 0 C7.23809524 -0.36190476 7.23809524 -0.36190476 10.5 1.1875 C12 3 12 3 12.5 5.5 C12 8 12 8 10.5 9.8125 C6.87730459 11.53328032 3.98961898 11.19948095 0 11 C0 7.37 0 3.74 0 0 Z " fill="#191D2D" transform="translate(419,971)"/>
<path d="M0 0 C6.625 -0.25 6.625 -0.25 10 2 C10.375 5.5 10.375 5.5 10 9 C6.3558226 11.4294516 4.28758728 11.16179575 0 11 C0 7.37 0 3.74 0 0 Z " fill="#191D2D" transform="translate(419,956)"/>
<path d="M0 0 C1.32 0.33 2.64 0.66 4 1 C5.25 3.5625 5.25 3.5625 6 6 C5.01 6 4.02 6 3 6 C3 12.93 3 19.86 3 27 C2.01 27 1.02 27 0 27 C0 18.09 0 9.18 0 0 Z " fill="#5C61E3" transform="translate(386,858)"/>
<path d="M0 0 C13 0 13 0 17 2 C18.35439668 4.70879335 18.06501451 7.00933268 18 10 C16.87353727 8.3103059 15.76636636 6.60605774 14.73046875 4.859375 C12.36155938 2.3140006 10.73012719 2.41082952 7.3125 2.25 C6.31863281 2.19328125 5.32476563 2.1365625 4.30078125 2.078125 C3.16189453 2.03945313 3.16189453 2.03945313 2 2 C2.01160156 2.79921875 2.02320313 3.5984375 2.03515625 4.421875 C2.09748443 12.00810539 1.76154197 19.45257512 1 27 C0.67 27 0.34 27 0 27 C0 18.09 0 9.18 0 0 Z " fill="#6368F7" transform="translate(745,858)"/>
<path d="M0 0 C1.87945312 0.08701172 1.87945312 0.08701172 3.796875 0.17578125 C5.06015625 0.22089844 6.3234375 0.26601563 7.625 0.3125 C8.58921875 0.37050781 9.5534375 0.42851563 10.546875 0.48828125 C11.21807049 1.94453575 11.88369307 3.40335992 12.546875 4.86328125 C13.10375 6.08144531 13.10375 6.08144531 13.671875 7.32421875 C14.546875 9.48828125 14.546875 9.48828125 14.546875 11.48828125 C13.556875 11.48828125 12.566875 11.48828125 11.546875 11.48828125 C10.556875 9.17828125 9.566875 6.86828125 8.546875 4.48828125 C4.586875 4.15828125 0.626875 3.82828125 -3.453125 3.48828125 C-3.8553125 5.18984375 -3.8553125 5.18984375 -4.265625 6.92578125 C-4.6575 8.10140625 -5.049375 9.27703125 -5.453125 10.48828125 C-6.443125 10.81828125 -7.433125 11.14828125 -8.453125 11.48828125 C-7.89613184 5.50060481 -6.480524 0.91636369 0 0 Z " fill="#6166F2" transform="translate(482.453125,873.51171875)"/>
<path d="M0 0 C1.87945312 0.08701172 1.87945312 0.08701172 3.796875 0.17578125 C5.06015625 0.22089844 6.3234375 0.26601563 7.625 0.3125 C8.58921875 0.37050781 9.5534375 0.42851563 10.546875 0.48828125 C11.21807049 1.94453575 11.88369307 3.40335992 12.546875 4.86328125 C13.10375 6.08144531 13.10375 6.08144531 13.671875 7.32421875 C14.546875 9.48828125 14.546875 9.48828125 14.546875 11.48828125 C13.556875 11.48828125 12.566875 11.48828125 11.546875 11.48828125 C10.556875 9.17828125 9.566875 6.86828125 8.546875 4.48828125 C4.586875 4.15828125 0.626875 3.82828125 -3.453125 3.48828125 C-3.8553125 5.18984375 -3.8553125 5.18984375 -4.265625 6.92578125 C-4.6575 8.10140625 -5.049375 9.27703125 -5.453125 10.48828125 C-6.443125 10.81828125 -7.433125 11.14828125 -8.453125 11.48828125 C-7.89613184 5.50060481 -6.480524 0.91636369 0 0 Z " fill="#6166F2" transform="translate(426.453125,873.51171875)"/>
<path d="M0 0 C2.05123248 2.05123248 2.64147118 3.27005063 3.625 5.9375 C3.88539063 6.62714844 4.14578125 7.31679688 4.4140625 8.02734375 C5 10 5 10 5 13 C1.7 13 -1.6 13 -5 13 C-2.05357143 3.89285714 -2.05357143 3.89285714 0 0 Z " fill="#1F233C" transform="translate(485,862)"/>
<path d="M0 0 C2.05123248 2.05123248 2.64147118 3.27005063 3.625 5.9375 C3.88539063 6.62714844 4.14578125 7.31679688 4.4140625 8.02734375 C5 10 5 10 5 13 C1.7 13 -1.6 13 -5 13 C-2.05357143 3.89285714 -2.05357143 3.89285714 0 0 Z " fill="#1F233C" transform="translate(429,862)"/>
<path d="M0 0 C0.99 0 1.98 0 3 0 C3 8.91 3 17.82 3 27 C2.34 27 1.68 27 1 27 C0.67 20.4 0.34 13.8 0 7 C-0.99 7 -1.98 7 -3 7 C-1.125 2.25 -1.125 2.25 0 0 Z " fill="#6469FA" transform="translate(409,858)"/>
<path d="M0 0 C0.66 0 1.32 0 2 0 C2 5.28 2 10.56 2 16 C2.66 16 3.32 16 4 16 C3.67 19.63 3.34 23.26 3 27 C2.01 27 1.02 27 0 27 C0 18.09 0 9.18 0 0 Z " fill="#5A5FE0" transform="translate(770,858)"/>
<path d="M0 0 C2.5693511 3.85402665 3.59312655 7.58753327 5 12 C1.7 12 -1.6 12 -5 12 C-4.35758106 10.186287 -3.71096881 8.37405876 -3.0625 6.5625 C-2.70285156 5.55316406 -2.34320312 4.54382813 -1.97265625 3.50390625 C-1 1 -1 1 0 0 Z " fill="#181C2B" transform="translate(787,961)"/>
<path d="M0 0 C2.56529454 1.28264727 2.66499863 2.22772349 3.625 4.875 C3.88539063 5.57367187 4.14578125 6.27234375 4.4140625 6.9921875 C5 9 5 9 5 12 C2.03 12 -0.94 12 -4 12 C-3.52309796 10.37433394 -3.04340334 8.74948689 -2.5625 7.125 C-2.29566406 6.22007812 -2.02882813 5.31515625 -1.75390625 4.3828125 C-1 2 -1 2 0 0 Z " fill="#181C2B" transform="translate(714,961)"/>
<path d="M0 0 C0.66 0 1.32 0 2 0 C3.32 3.63 4.64 7.26 6 11 C2.7 11 -0.6 11 -4 11 C-1.125 2.25 -1.125 2.25 0 0 Z " fill="#181C2B" transform="translate(595,962)"/>
<path d="M0 0 C0.66 0 1.32 0 2 0 C3.32 3.63 4.64 7.26 6 11 C2.7 11 -0.6 11 -4 11 C-1.125 2.25 -1.125 2.25 0 0 Z " fill="#181C2B" transform="translate(503,962)"/>
<path d="M0 0 C6.73891938 0.11618827 6.73891938 0.11618827 9.8671875 2.30859375 C13.13078815 5.68930926 14.36004401 8.20393017 14.375 12.9375 C14.27987996 14.29409299 14.16528674 15.65015829 14 17 C13.34 17 12.68 17 12 17 C11.91363281 16.40832031 11.82726562 15.81664062 11.73828125 15.20703125 C10.76313952 9.7229773 9.7045758 6.42150967 5 3 C1.81849108 2.12010026 1.81849108 2.12010026 -1 2 C-0.67 1.34 -0.34 0.68 0 0 Z " fill="#6166F3" transform="translate(593,858)"/>
<path d="M0 0 C2.70552388 2.19823815 4.44778333 3.89556667 6 7 C6.04022391 9.3329866 6.04320247 11.66706666 6 14 C4 11 4 11 2.625 8 C0.93750813 4.8846304 0.16100231 3.53778491 -3 2 C-5.71994749 1.76507171 -8.25956977 1.86297849 -11 2 C-11 1.34 -11 0.68 -11 0 C-7.49337774 -1.75331113 -3.70839169 -0.95431841 0 0 Z " fill="#5F64ED" transform="translate(732,859)"/>
<path d="M0 0 C3 1.8125 3 1.8125 5 4 C5 4.99 5 5.98 5 7 C4.01 6.67 3.02 6.34 2 6 C2 5.34 2 4.68 2 4 C-4.11330766 2.80013806 -4.11330766 2.80013806 -9.9375 4.4375 C-10.618125 4.953125 -11.29875 5.46875 -12 6 C-12.66 6 -13.32 6 -14 6 C-13 3 -13 3 -10.9375 1.3125 C-7.15937788 -0.37559712 -4.0754538 -0.75593095 0 0 Z " fill="#5E63E9" transform="translate(517,858)"/>
<path d="M0 0 C3.6875 0.875 3.6875 0.875 7 2 C7 2.33 7 2.66 7 3 C6.37351562 3.09796875 5.74703125 3.1959375 5.1015625 3.296875 C4.28429687 3.44640625 3.46703125 3.5959375 2.625 3.75 C1.81289063 3.88921875 1.00078125 4.0284375 0.1640625 4.171875 C-2.13002531 4.81303837 -2.13002531 4.81303837 -3.25 6.84375 C-4.29478427 9.84750478 -4.63653022 12.84992854 -5 16 C-6.5625 14.875 -6.5625 14.875 -8 13 C-7.89402357 8.12508414 -6.30132285 5.49551831 -3 2 C-2.01 1.34 -1.02 0.68 0 0 Z " fill="#565AD3" transform="translate(591,858)"/>
<path d="M0 0 C0.33 0 0.66 0 1 0 C1.58934994 5.65775947 0.44634329 8.63902155 -2.61328125 13.3984375 C-4 15 -4 15 -7 16 C-6.52819393 13.4522472 -5.87337093 11.79422776 -4.5 9.5625 C-2.97276482 6.95347323 -2.55509656 4.93408183 -2 2 C-1.34 1.34 -0.68 0.68 0 0 Z " fill="#5A5EDE" transform="translate(738,868)"/>
<path d="M0 0 C2.97 0 5.94 0 9 0 C9 1.32 9 2.64 9 4 C6.03 4 3.06 4 0 4 C0 2.68 0 1.36 0 0 Z " fill="#020305" transform="translate(397,974)"/>
<path d="M0 0 C0.20625 0.598125 0.4125 1.19625 0.625 1.8125 C2.50926082 4.81018767 4.81132084 5.61361776 8 7 C8 7.66 8 8.32 8 9 C1.25 8.25 1.25 8.25 -1 6 C-1.1875 3.4375 -1.1875 3.4375 -1 1 C-0.67 0.67 -0.34 0.34 0 0 Z " fill="#6166F2" transform="translate(795,863)"/>
<path d="M0 0 C0.33 0 0.66 0 1 0 C1.3227506 4.62609198 0.84450614 7.28026121 -2 11 C-2.66 11 -3.32 11 -4 11 C-4.33 11.66 -4.66 12.32 -5 13 C-3.28571429 3.28571429 -3.28571429 3.28571429 0 0 Z " fill="#585DDA" transform="translate(763,863)"/>
<path d="M0 0 C0.33 0.66 0.66 1.32 1 2 C0.67 2.66 0.34 3.32 0 4 C-0.26955833 6.33189345 -0.44507377 8.66321507 -0.62109375 11.00390625 C-0.74613281 11.66261719 -0.87117188 12.32132813 -1 13 C-1.99 13.495 -1.99 13.495 -3 14 C-3.08114106 12.22992286 -3.13925505 10.45877902 -3.1875 8.6875 C-3.22230469 7.70136719 -3.25710938 6.71523438 -3.29296875 5.69921875 C-3 3 -3 3 -1.48828125 1.14453125 C-0.99714844 0.76683594 -0.50601562 0.38914062 0 0 Z " fill="#6267F6" transform="translate(504,863)"/>
<path d="M0 0 C0.99 0.33 1.98 0.66 3 1 C0.70850887 3.7321625 -0.64386075 4.90028101 -4.125 5.875 C-5.07375 5.91625 -6.0225 5.9575 -7 6 C-7.66 5.34 -8.32 4.68 -9 4 C-7.88625 3.71125 -6.7725 3.4225 -5.625 3.125 C-1.99708908 2.30758671 -1.99708908 2.30758671 0 0 Z " fill="#5F64ED" transform="translate(631,879)"/>
<path d="M0 0 C3.16115776 1.36983503 3.9927092 1.9890638 6 5 C6.125 7.6875 6.125 7.6875 6 10 C5.01 9.67 4.02 9.34 3 9 C2.28293018 7.01751285 1.61709587 5.01584651 1 3 C0.34 2.34 -0.32 1.68 -1 1 C-0.67 0.67 -0.34 0.34 0 0 Z " fill="#5B60E2" transform="translate(656,859)"/>
<path d="M0 0 C0.99 0 1.98 0 3 0 C2.01 2.97 1.02 5.94 0 9 C-0.99 9 -1.98 9 -3 9 C-2.01 6.03 -1.02 3.06 0 0 Z " fill="#5A5EDE" transform="translate(703,871)"/>
<path d="M0 0 C0.99 0 1.98 0 3 0 C4.32 2.64 5.64 5.28 7 8 C3 7 3 7 1.25 4.5625 C0 2 0 2 0 0 Z " fill="#5E62E8" transform="translate(655,877)"/>
<path d="M0 0 C2.91517292 1.07401108 4.77810176 1.77810176 7 4 C7 4.99 7 5.98 7 7 C6.01 6.67 5.02 6.34 4 6 C4 5.34 4 4.68 4 4 C2.68 3.34 1.36 2.68 0 2 C0 1.34 0 0.68 0 0 Z " fill="#595EDB" transform="translate(515,858)"/>
<path d="M0 0 C1.98 0.99 3.96 1.98 6 3 C6 3.66 6 4.32 6 5 C6.66 5.33 7.32 5.66 8 6 C4.26512223 5.5020163 2.18762365 5.12508244 -1 3 C-0.67 2.01 -0.34 1.02 0 0 Z " fill="#585DDA" transform="translate(794,879)"/>
<path d="M0 0 C-2.71182212 2.60334924 -3.89133813 2.99456691 -7.75 3.1875 C-8.8225 3.125625 -9.895 3.06375 -11 3 C-4.33333333 -1.44444444 -4.33333333 -1.44444444 0 0 Z " fill="#5A5FDE" transform="translate(520,882)"/>
<path d="M0 0 C2.97 0 5.94 0 9 0 C9 0.66 9 1.32 9 2 C6.29120665 3.35439668 3.99066732 3.06501451 1 3 C0.67 2.01 0.34 1.02 0 0 Z " fill="#6166F1" transform="translate(722,882)"/>
<path d="M0 0 C3 1 3 1 4 3 C4.039992 4.99960012 4.04346799 7.00047242 4 9 C2.24901874 6.37352812 0.61268692 3.71224618 -1 1 C-0.67 0.67 -0.34 0.34 0 0 Z " fill="#6166F3" transform="translate(759,859)"/>
<path d="M0 0 C1 3 1 3 0 6 C-0.99 6 -1.98 6 -3 6 C-3.33 4.68 -3.66 3.36 -4 2 C-2.68 1.34 -1.36 0.68 0 0 Z " fill="#6267F5" transform="translate(701,879)"/>
</svg>
